<svg width="204" height="215" viewBox="0 0 204 215" fill="none" xmlns="http://www.w3.org/2000/svg">
<g opacity="0.4">
<rect x="78" y="132" width="48" height="48" rx="24" fill="#A20E20"/>
</g>
<rect x="88" y="142" width="28" height="28" rx="14" fill="#A20E20"/>
<rect x="98" y="152" width="8" height="8" rx="4" fill="white"/>
<g filter="url(#filter0_d_132_10904)">
<path fill-rule="evenodd" clip-rule="evenodd" d="M126.831 207.473C126.553 207.097 126.215 206.328 125.614 205.394C125.274 204.866 124.429 203.871 124.178 203.366C123.96 202.92 123.983 202.72 124.035 202.35C124.127 201.692 124.757 201.179 125.429 201.248C125.937 201.3 126.368 201.659 126.755 201.999C126.989 202.203 127.277 202.6 127.45 202.824C127.609 203.03 127.649 203.115 127.819 203.358C128.044 203.68 128.114 203.839 128.028 203.485C127.959 202.965 127.845 202.077 127.681 201.292C127.556 200.697 127.525 200.604 127.406 200.147C127.28 199.661 127.215 199.32 127.097 198.805C127.015 198.44 126.867 197.695 126.827 197.276C126.771 196.702 126.742 195.768 127.085 195.338C127.354 195.002 127.971 194.9 128.354 195.107C128.855 195.379 129.14 196.159 129.27 196.47C129.504 197.029 129.649 197.676 129.775 198.525C129.935 199.605 130.231 201.105 130.24 201.42C130.264 201.034 130.174 200.219 130.237 199.848C130.293 199.512 130.557 199.121 130.888 199.015C131.168 198.926 131.496 198.894 131.784 198.958C132.091 199.025 132.414 199.259 132.534 199.48C132.888 200.134 132.895 201.471 132.91 201.399C132.994 201.005 132.979 200.111 133.188 199.739C133.325 199.494 133.674 199.273 133.86 199.237C134.147 199.183 134.501 199.166 134.803 199.229C135.047 199.28 135.376 199.591 135.465 199.739C135.679 200.1 135.8 201.119 135.836 201.477C135.851 201.625 135.909 201.066 136.123 200.706C136.52 200.036 137.926 199.906 137.98 201.375C138.004 202.06 138 202.029 138 202.49C138 203.032 137.988 203.358 137.96 203.75C137.93 204.169 137.846 205.116 137.724 205.575C137.64 205.891 137.361 206.6 137.086 207.026C137.086 207.026 136.035 208.336 135.92 208.926C135.805 209.514 135.843 209.519 135.821 209.937C135.798 210.354 135.939 210.903 135.939 210.903C135.939 210.903 135.154 211.012 134.732 210.94C134.349 210.874 133.875 210.058 133.753 209.809C133.585 209.465 133.226 209.531 133.086 209.785C132.866 210.186 132.392 210.906 132.057 210.951C131.404 211.039 130.048 210.984 128.986 210.972C128.986 210.972 129.167 209.913 128.764 209.549C128.466 209.278 127.952 208.727 127.645 208.438L126.831 207.473Z" fill="white"/>
<path fill-rule="evenodd" clip-rule="evenodd" d="M126.831 207.473C126.553 207.097 126.215 206.328 125.614 205.394C125.274 204.866 124.429 203.871 124.178 203.366C123.96 202.92 123.983 202.72 124.035 202.35C124.127 201.692 124.757 201.179 125.429 201.248C125.937 201.3 126.368 201.659 126.755 201.999C126.989 202.203 127.277 202.6 127.45 202.824C127.609 203.03 127.649 203.115 127.819 203.358C128.044 203.68 128.114 203.839 128.028 203.485C127.959 202.965 127.845 202.077 127.681 201.292C127.556 200.697 127.525 200.604 127.406 200.147C127.28 199.661 127.215 199.32 127.097 198.805C127.015 198.44 126.867 197.695 126.827 197.276C126.771 196.702 126.742 195.768 127.085 195.338C127.354 195.002 127.971 194.9 128.354 195.107C128.855 195.379 129.14 196.159 129.27 196.47C129.504 197.029 129.649 197.676 129.775 198.525C129.935 199.605 130.231 201.105 130.24 201.42C130.264 201.034 130.174 200.219 130.237 199.848C130.293 199.512 130.557 199.121 130.888 199.015C131.168 198.926 131.496 198.894 131.784 198.958C132.091 199.025 132.414 199.259 132.534 199.48C132.888 200.134 132.895 201.471 132.91 201.399C132.994 201.005 132.979 200.111 133.188 199.739C133.325 199.494 133.674 199.273 133.86 199.237C134.147 199.183 134.501 199.166 134.803 199.229C135.047 199.28 135.376 199.591 135.465 199.739C135.679 200.1 135.8 201.119 135.836 201.477C135.851 201.625 135.909 201.066 136.123 200.706C136.52 200.036 137.926 199.906 137.98 201.375C138.004 202.06 138 202.029 138 202.49C138 203.032 137.988 203.358 137.96 203.75C137.93 204.169 137.846 205.116 137.724 205.575C137.64 205.891 137.361 206.6 137.086 207.026C137.086 207.026 136.035 208.336 135.92 208.926C135.805 209.514 135.843 209.519 135.821 209.937C135.798 210.354 135.939 210.903 135.939 210.903C135.939 210.903 135.154 211.012 134.732 210.94C134.349 210.874 133.875 210.058 133.753 209.809C133.585 209.465 133.226 209.531 133.086 209.785C132.866 210.186 132.392 210.906 132.057 210.951C131.404 211.039 130.048 210.984 128.986 210.972C128.986 210.972 129.167 209.913 128.764 209.549C128.466 209.278 127.952 208.727 127.645 208.438L126.831 207.473Z" stroke="black" stroke-width="0.75" stroke-linecap="round" stroke-linejoin="round"/>
</g>
<path d="M130.5 204C130.776 204 131 204.224 131 204.5V207.5C131 207.776 130.776 208 130.5 208C130.224 208 130 207.776 130 207.5V204.5C130 204.224 130.224 204 130.5 204ZM132.5 204C132.776 204 133 204.224 133 204.5V207.5C133 207.776 132.776 208 132.5 208C132.224 208 132 207.776 132 207.5V204.5C132 204.224 132.224 204 132.5 204ZM134.5 204C134.776 204 135 204.224 135 204.5V207.5C135 207.776 134.776 208 134.5 208C134.224 208 134 207.776 134 207.5V204.5C134 204.224 134.224 204 134.5 204Z" fill="black"/>
<g filter="url(#filter1_dd_132_10904)">
<path d="M12 8C12 3.58172 15.5817 0 20 0H184C188.418 0 192 3.58172 192 8V110C192 114.418 188.418 118 184 118H20C15.5817 118 12 114.418 12 110V8Z" fill="white"/>
<path d="M73.9054 25H72.2179L75.2903 16.2727H77.242L80.3187 25H78.6312L76.3002 18.0625H76.2321L73.9054 25ZM73.9608 21.5781H78.563V22.848H73.9608V21.5781ZM81.4682 25V16.2727H83.0108V19.5369H83.0748C83.1543 19.3778 83.2665 19.2088 83.4114 19.0298C83.5563 18.848 83.7523 18.6932 83.9995 18.5653C84.2466 18.4347 84.562 18.3693 84.9455 18.3693C85.4512 18.3693 85.9071 18.4986 86.3134 18.7571C86.7225 19.0128 87.0463 19.392 87.285 19.8949C87.5265 20.3949 87.6472 21.0085 87.6472 21.7358C87.6472 22.4545 87.5293 23.0653 87.2935 23.5682C87.0577 24.071 86.7367 24.4545 86.3304 24.7188C85.9242 24.983 85.464 25.1151 84.9498 25.1151C84.5748 25.1151 84.2637 25.0526 84.0165 24.9276C83.7694 24.8026 83.5705 24.652 83.4199 24.4759C83.2722 24.2969 83.1571 24.1278 83.0748 23.9688H82.9853V25H81.4682ZM82.981 21.7273C82.981 22.1506 83.0407 22.5213 83.16 22.8395C83.2821 23.1577 83.4569 23.4062 83.6841 23.5852C83.9142 23.7614 84.1926 23.8494 84.5194 23.8494C84.8603 23.8494 85.1458 23.7585 85.3759 23.5767C85.606 23.392 85.7793 23.1406 85.8958 22.8224C86.0151 22.5014 86.0748 22.1364 86.0748 21.7273C86.0748 21.321 86.0165 20.9602 85.9 20.6449C85.7836 20.3295 85.6103 20.0824 85.3801 19.9034C85.15 19.7244 84.8631 19.6349 84.5194 19.6349C84.1898 19.6349 83.91 19.7216 83.6799 19.8949C83.4498 20.0682 83.275 20.3111 83.1557 20.6236C83.0392 20.9361 82.981 21.304 82.981 21.7273ZM93.1305 22.2472V18.4545H94.6731V25H93.1774V23.8366H93.1092C92.9615 24.2031 92.7186 24.5028 92.3805 24.7358C92.0453 24.9687 91.6319 25.0852 91.1404 25.0852C90.7115 25.0852 90.3322 24.9901 90.0027 24.7997C89.676 24.6065 89.4203 24.3267 89.2356 23.9602C89.051 23.5909 88.9586 23.1449 88.9586 22.6222V18.4545H90.5012V22.3835C90.5012 22.7983 90.6149 23.1278 90.8422 23.3722C91.0694 23.6165 91.3677 23.7386 91.737 23.7386C91.9643 23.7386 92.1845 23.6832 92.3975 23.5724C92.6106 23.4616 92.7853 23.2969 92.9217 23.0781C93.0609 22.8565 93.1305 22.5795 93.1305 22.2472ZM102.262 25H99.3042V16.2727H102.321C103.188 16.2727 103.932 16.4474 104.554 16.7969C105.179 17.1435 105.659 17.642 105.994 18.2926C106.33 18.9432 106.497 19.7216 106.497 20.6278C106.497 21.5369 106.328 22.3182 105.99 22.9716C105.655 23.625 105.171 24.1264 104.537 24.4759C103.906 24.8253 103.148 25 102.262 25ZM100.885 23.6321H102.185C102.793 23.6321 103.3 23.5213 103.706 23.2997C104.112 23.0753 104.418 22.7415 104.622 22.2983C104.827 21.8523 104.929 21.2955 104.929 20.6278C104.929 19.9602 104.827 19.4062 104.622 18.9659C104.418 18.5227 104.115 18.1918 103.715 17.973C103.317 17.7514 102.823 17.6406 102.232 17.6406H100.885V23.6321ZM109.474 21.1648V25H107.931V16.2727H109.44V19.5668H109.517C109.67 19.1974 109.907 18.9062 110.228 18.6932C110.552 18.4773 110.964 18.3693 111.464 18.3693C111.919 18.3693 112.315 18.4645 112.653 18.6548C112.991 18.8452 113.252 19.1236 113.437 19.4901C113.624 19.8565 113.718 20.304 113.718 20.8324V25H112.176V21.071C112.176 20.6307 112.062 20.2884 111.835 20.044C111.61 19.7969 111.295 19.6733 110.889 19.6733C110.616 19.6733 110.372 19.733 110.156 19.8523C109.943 19.9687 109.775 20.1378 109.653 20.3594C109.534 20.581 109.474 20.8494 109.474 21.1648ZM117.174 25.1321C116.759 25.1321 116.386 25.0582 116.053 24.9105C115.724 24.7599 115.463 24.5384 115.269 24.2457C115.079 23.9531 114.984 23.5923 114.984 23.1634C114.984 22.794 115.052 22.4886 115.188 22.2472C115.325 22.0057 115.511 21.8125 115.747 21.6676C115.982 21.5227 116.248 21.4134 116.544 21.3395C116.842 21.2628 117.15 21.2074 117.468 21.1733C117.852 21.1335 118.163 21.098 118.401 21.0668C118.64 21.0327 118.813 20.9815 118.921 20.9134C119.032 20.8423 119.088 20.733 119.088 20.5852V20.5597C119.088 20.2386 118.992 19.9901 118.802 19.8139C118.612 19.6378 118.338 19.5497 117.98 19.5497C117.602 19.5497 117.302 19.6321 117.08 19.7969C116.862 19.9616 116.714 20.1562 116.637 20.3807L115.197 20.1761C115.311 19.7784 115.498 19.446 115.759 19.179C116.021 18.9091 116.34 18.7074 116.718 18.5739C117.096 18.4375 117.514 18.3693 117.971 18.3693C118.286 18.3693 118.6 18.4062 118.913 18.4801C119.225 18.554 119.511 18.6761 119.769 18.8466C120.028 19.0142 120.235 19.2429 120.392 19.5327C120.551 19.8224 120.63 20.1847 120.63 20.6193V25H119.147V24.1009H119.096C119.002 24.2827 118.87 24.4531 118.7 24.6122C118.532 24.7685 118.32 24.8949 118.065 24.9915C117.812 25.0852 117.515 25.1321 117.174 25.1321ZM117.575 23.9986C117.884 23.9986 118.153 23.9375 118.38 23.8153C118.607 23.6903 118.782 23.5256 118.904 23.321C119.029 23.1165 119.092 22.8935 119.092 22.652V21.8807C119.044 21.9205 118.961 21.9574 118.845 21.9915C118.731 22.0256 118.603 22.0554 118.461 22.081C118.319 22.1065 118.178 22.1293 118.039 22.1491C117.9 22.169 117.779 22.1861 117.677 22.2003C117.447 22.2315 117.241 22.2827 117.059 22.3537C116.877 22.4247 116.734 22.5241 116.629 22.652C116.524 22.777 116.471 22.9389 116.471 23.1378C116.471 23.4219 116.575 23.6364 116.782 23.7812C116.99 23.9261 117.254 23.9986 117.575 23.9986ZM122.249 25V16.2727H123.792V19.5369H123.856C123.936 19.3778 124.048 19.2088 124.193 19.0298C124.338 18.848 124.534 18.6932 124.781 18.5653C125.028 18.4347 125.343 18.3693 125.727 18.3693C126.232 18.3693 126.688 18.4986 127.095 18.7571C127.504 19.0128 127.828 19.392 128.066 19.8949C128.308 20.3949 128.428 21.0085 128.428 21.7358C128.428 22.4545 128.311 23.0653 128.075 23.5682C127.839 24.071 127.518 24.4545 127.112 24.7188C126.705 24.983 126.245 25.1151 125.731 25.1151C125.356 25.1151 125.045 25.0526 124.798 24.9276C124.551 24.8026 124.352 24.652 124.201 24.4759C124.053 24.2969 123.938 24.1278 123.856 23.9688H123.767V25H122.249ZM123.762 21.7273C123.762 22.1506 123.822 22.5213 123.941 22.8395C124.063 23.1577 124.238 23.4062 124.465 23.5852C124.695 23.7614 124.974 23.8494 125.301 23.8494C125.642 23.8494 125.927 23.7585 126.157 23.5767C126.387 23.392 126.561 23.1406 126.677 22.8224C126.796 22.5014 126.856 22.1364 126.856 21.7273C126.856 21.321 126.798 20.9602 126.681 20.6449C126.565 20.3295 126.392 20.0824 126.161 19.9034C125.931 19.7244 125.644 19.6349 125.301 19.6349C124.971 19.6349 124.691 19.7216 124.461 19.8949C124.231 20.0682 124.056 20.3111 123.937 20.6236C123.82 20.9361 123.762 21.304 123.762 21.7273ZM129.74 25V18.4545H131.282V25H129.74ZM130.515 17.5256C130.271 17.5256 130.061 17.4446 129.885 17.2827C129.709 17.1179 129.621 16.9205 129.621 16.6903C129.621 16.4574 129.709 16.2599 129.885 16.098C130.061 15.9332 130.271 15.8509 130.515 15.8509C130.763 15.8509 130.973 15.9332 131.146 16.098C131.322 16.2599 131.41 16.4574 131.41 16.6903C131.41 16.9205 131.322 17.1179 131.146 17.2827C130.973 17.4446 130.763 17.5256 130.515 17.5256Z" fill="#A20E20"/>
<path d="M32.4135 39.2102V38.2727H38.959V39.2102H36.2147V47H35.1578V39.2102H32.4135ZM42.1635 47.1364C41.5726 47.1364 41.0542 46.9957 40.6081 46.7145C40.165 46.4332 39.8184 46.0398 39.5684 45.5341C39.3212 45.0284 39.1976 44.4375 39.1976 43.7614C39.1976 43.0795 39.3212 42.4844 39.5684 41.9759C39.8184 41.4673 40.165 41.0724 40.6081 40.7912C41.0542 40.5099 41.5726 40.3693 42.1635 40.3693C42.7544 40.3693 43.2715 40.5099 43.7147 40.7912C44.1607 41.0724 44.5073 41.4673 44.7544 41.9759C45.0044 42.4844 45.1294 43.0795 45.1294 43.7614C45.1294 44.4375 45.0044 45.0284 44.7544 45.5341C44.5073 46.0398 44.1607 46.4332 43.7147 46.7145C43.2715 46.9957 42.7544 47.1364 42.1635 47.1364ZM42.1635 46.233C42.6124 46.233 42.9817 46.1179 43.2715 45.8878C43.5613 45.6577 43.7757 45.3551 43.915 44.9801C44.0542 44.6051 44.1238 44.1989 44.1238 43.7614C44.1238 43.3239 44.0542 42.9162 43.915 42.5384C43.7757 42.1605 43.5613 41.8551 43.2715 41.6222C42.9817 41.3892 42.6124 41.2727 42.1635 41.2727C41.7147 41.2727 41.3453 41.3892 41.0556 41.6222C40.7658 41.8551 40.5513 42.1605 40.4121 42.5384C40.2729 42.9162 40.2033 43.3239 40.2033 43.7614C40.2033 44.1989 40.2729 44.6051 40.4121 44.9801C40.5513 45.3551 40.7658 45.6577 41.0556 45.8878C41.3453 46.1179 41.7147 46.233 42.1635 46.233ZM47.9249 47L45.9306 40.4545H46.9874L48.4022 45.4659H48.4703L49.8681 40.4545H50.9419L52.3226 45.4489H52.3908L53.8056 40.4545H54.8624L52.8681 47H51.8794L50.4476 41.9716H50.3453L48.9135 47H47.9249ZM58.7136 47.1364C58.0829 47.1364 57.5389 46.9972 57.0815 46.7188C56.627 46.4375 56.2761 46.0455 56.0289 45.5426C55.7846 45.0369 55.6625 44.4489 55.6625 43.7784C55.6625 43.108 55.7846 42.517 56.0289 42.0057C56.2761 41.4915 56.6199 41.0909 57.0602 40.804C57.5034 40.5142 58.0204 40.3693 58.6113 40.3693C58.9522 40.3693 59.2889 40.4261 59.6213 40.5398C59.9537 40.6534 60.2562 40.8381 60.5289 41.0938C60.8017 41.3466 61.019 41.6818 61.1809 42.0994C61.3429 42.517 61.4238 43.0312 61.4238 43.642V44.0682H56.3784V43.1989H60.4011C60.4011 42.8295 60.3272 42.5 60.1795 42.2102C60.0346 41.9205 59.8272 41.6918 59.5574 41.5241C59.2903 41.3565 58.975 41.2727 58.6113 41.2727C58.2108 41.2727 57.8642 41.3722 57.5716 41.571C57.2818 41.767 57.0588 42.0227 56.9025 42.3381C56.7463 42.6534 56.6681 42.9915 56.6681 43.3523V43.9318C56.6681 44.4261 56.7534 44.8452 56.9238 45.1889C57.0971 45.5298 57.3372 45.7898 57.644 45.9688C57.9508 46.1449 58.3074 46.233 58.7136 46.233C58.9778 46.233 59.2164 46.196 59.4295 46.1222C59.6454 46.0455 59.8315 45.9318 59.9877 45.7812C60.144 45.6278 60.2647 45.4375 60.35 45.2102L61.3216 45.483C61.2193 45.8125 61.0474 46.1023 60.8059 46.3523C60.5645 46.5994 60.2662 46.7926 59.911 46.9318C59.5559 47.0682 59.1568 47.1364 58.7136 47.1364ZM62.9537 47V40.4545H63.9252V41.4432H63.9934C64.1127 41.1193 64.3287 40.8565 64.6412 40.6548C64.9537 40.4531 65.3059 40.3523 65.698 40.3523C65.7718 40.3523 65.8642 40.3537 65.975 40.3565C66.0858 40.3594 66.1696 40.3636 66.2264 40.3693V41.392C66.1923 41.3835 66.1142 41.3707 65.992 41.3537C65.8727 41.3338 65.7463 41.3239 65.6127 41.3239C65.2946 41.3239 65.0105 41.3906 64.7605 41.5241C64.5133 41.6548 64.3173 41.8366 64.1724 42.0696C64.0304 42.2997 63.9593 42.5625 63.9593 42.858V47H62.9537ZM73.5719 47.1193C72.9867 47.1193 72.4696 47.0156 72.0208 46.8082C71.5748 46.598 71.2267 46.3097 70.9767 45.9432C70.7267 45.5739 70.6032 45.1534 70.606 44.6818C70.6032 44.3125 70.6756 43.9716 70.8233 43.6591C70.9711 43.3437 71.1728 43.081 71.4284 42.8707C71.687 42.6577 71.9753 42.5227 72.2935 42.4659V42.4148C71.8759 42.3068 71.5435 42.0724 71.2963 41.7116C71.0492 41.348 70.927 40.9347 70.9299 40.4716C70.927 40.0284 71.0392 39.6321 71.2665 39.2827C71.4938 38.9332 71.8063 38.6577 72.204 38.456C72.6046 38.2543 73.0605 38.1534 73.5719 38.1534C74.0776 38.1534 74.5293 38.2543 74.927 38.456C75.3248 38.6577 75.6373 38.9332 75.8645 39.2827C76.0946 39.6321 76.2111 40.0284 76.214 40.4716C76.2111 40.9347 76.0847 41.348 75.8347 41.7116C75.5875 42.0724 75.2594 42.3068 74.8503 42.4148V42.4659C75.1657 42.5227 75.4498 42.6577 75.7026 42.8707C75.9554 43.081 76.1571 43.3437 76.3077 43.6591C76.4583 43.9716 76.535 44.3125 76.5378 44.6818C76.535 45.1534 76.4071 45.5739 76.1543 45.9432C75.9043 46.3097 75.5563 46.598 75.1103 46.8082C74.6671 47.0156 74.1543 47.1193 73.5719 47.1193ZM73.5719 46.1818C73.9668 46.1818 74.3077 46.1179 74.5946 45.9901C74.8816 45.8622 75.1032 45.6818 75.2594 45.4489C75.4157 45.2159 75.4952 44.9432 75.498 44.6307C75.4952 44.3011 75.41 44.0099 75.2424 43.7571C75.0748 43.5043 74.8461 43.3054 74.5563 43.1605C74.2694 43.0156 73.9412 42.9432 73.5719 42.9432C73.1998 42.9432 72.8674 43.0156 72.5748 43.1605C72.285 43.3054 72.0563 43.5043 71.8887 43.7571C71.7239 44.0099 71.6429 44.3011 71.6458 44.6307C71.6429 44.9432 71.7182 45.2159 71.8716 45.4489C72.0279 45.6818 72.2509 45.8622 72.5407 45.9901C72.8304 46.1179 73.1742 46.1818 73.5719 46.1818ZM73.5719 42.0398C73.8844 42.0398 74.1614 41.9773 74.4029 41.8523C74.6472 41.7273 74.839 41.5526 74.9782 41.3281C75.1174 41.1037 75.1884 40.8409 75.1912 40.5398C75.1884 40.2443 75.1188 39.9872 74.9824 39.7685C74.8461 39.5469 74.6571 39.3764 74.4157 39.2571C74.1742 39.1349 73.8929 39.0739 73.5719 39.0739C73.2452 39.0739 72.9597 39.1349 72.7154 39.2571C72.4711 39.3764 72.2821 39.5469 72.1486 39.7685C72.0151 39.9872 71.9498 40.2443 71.9526 40.5398C71.9498 40.8409 72.0165 41.1037 72.1529 41.3281C72.2921 41.5526 72.4838 41.7273 72.7282 41.8523C72.9725 41.9773 73.2537 42.0398 73.5719 42.0398ZM81.2392 38.2727V47H80.1824V39.3807H80.1312L78.0005 40.7955V39.7216L80.1824 38.2727H81.2392ZM84.7505 45.8068L84.6824 46.267C84.6341 46.5909 84.5602 46.9375 84.4608 47.3068C84.3642 47.6761 84.2633 48.0241 84.1582 48.3509C84.0531 48.6776 83.9664 48.9375 83.8983 49.1307H83.1312C83.1681 48.9489 83.2164 48.7088 83.2761 48.4105C83.3358 48.1122 83.3954 47.7784 83.4551 47.4091C83.5176 47.0426 83.5687 46.6676 83.6085 46.2841L83.6596 45.8068H84.7505ZM92.699 47.1193C92.199 47.1193 91.7488 47.0199 91.3482 46.821C90.9476 46.6222 90.6266 46.3494 90.3851 46.0028C90.1436 45.6562 90.0115 45.2614 89.9888 44.8182H91.0115C91.0513 45.2131 91.2303 45.5398 91.5485 45.7983C91.8695 46.054 92.253 46.1818 92.699 46.1818C93.057 46.1818 93.3752 46.098 93.6536 45.9304C93.9348 45.7628 94.155 45.5327 94.3141 45.2401C94.476 44.9446 94.557 44.6108 94.557 44.2386C94.557 43.858 94.4732 43.5185 94.3056 43.2202C94.1408 42.919 93.9135 42.6818 93.6238 42.5085C93.334 42.3352 93.003 42.2472 92.6309 42.2443C92.3638 42.2415 92.0897 42.2827 91.8084 42.3679C91.5272 42.4503 91.2956 42.5568 91.1138 42.6875L90.1252 42.5682L90.6536 38.2727H95.1877V39.2102H91.54L91.2331 41.7841H91.2843C91.4632 41.642 91.6877 41.5241 91.9576 41.4304C92.2275 41.3366 92.5087 41.2898 92.8013 41.2898C93.3354 41.2898 93.8113 41.4176 94.2289 41.6733C94.6493 41.9261 94.9789 42.2727 95.2175 42.7131C95.459 43.1534 95.5797 43.6562 95.5797 44.2216C95.5797 44.7784 95.4547 45.2756 95.2047 45.7131C94.9576 46.1477 94.6167 46.4915 94.182 46.7443C93.7473 46.9943 93.253 47.1193 92.699 47.1193ZM100.136 40.4545V41.3068H96.7441V40.4545H100.136ZM97.7328 38.8864H98.7385V45.125C98.7385 45.4091 98.7797 45.6222 98.862 45.7642C98.9473 45.9034 99.0552 45.9972 99.1859 46.0455C99.3194 46.0909 99.46 46.1136 99.6078 46.1136C99.7186 46.1136 99.8095 46.108 99.8805 46.0966C99.9515 46.0824 100.008 46.071 100.051 46.0625L100.256 46.9659C100.187 46.9915 100.092 47.017 99.97 47.0426C99.8478 47.071 99.693 47.0852 99.5055 47.0852C99.2214 47.0852 98.943 47.0241 98.6703 46.902C98.4004 46.7798 98.176 46.5938 97.997 46.3438C97.8208 46.0938 97.7328 45.7784 97.7328 45.3977V38.8864ZM102.795 43.0625V47H101.79V38.2727H102.795V41.4773H102.881C103.034 41.1392 103.264 40.8707 103.571 40.6719C103.881 40.4702 104.292 40.3693 104.807 40.3693C105.253 40.3693 105.643 40.4588 105.979 40.6378C106.314 40.8139 106.574 41.0852 106.758 41.4517C106.946 41.8153 107.04 42.2784 107.04 42.8409V47H106.034V42.9091C106.034 42.3892 105.899 41.9872 105.629 41.7031C105.362 41.4162 104.991 41.2727 104.517 41.2727C104.187 41.2727 103.892 41.3423 103.631 41.4815C103.372 41.6207 103.167 41.8239 103.017 42.0909C102.869 42.358 102.795 42.6818 102.795 43.0625ZM112.391 47V38.2727H117.624V39.2102H113.448V42.1591H117.232V43.0966H113.448V47H112.391ZM120.303 38.2727V47H119.297V38.2727H120.303ZM124.804 47.1364C124.213 47.1364 123.695 46.9957 123.249 46.7145C122.806 46.4332 122.459 46.0398 122.209 45.5341C121.962 45.0284 121.838 44.4375 121.838 43.7614C121.838 43.0795 121.962 42.4844 122.209 41.9759C122.459 41.4673 122.806 41.0724 123.249 40.7912C123.695 40.5099 124.213 40.3693 124.804 40.3693C125.395 40.3693 125.912 40.5099 126.355 40.7912C126.801 41.0724 127.148 41.4673 127.395 41.9759C127.645 42.4844 127.77 43.0795 127.77 43.7614C127.77 44.4375 127.645 45.0284 127.395 45.5341C127.148 46.0398 126.801 46.4332 126.355 46.7145C125.912 46.9957 125.395 47.1364 124.804 47.1364ZM124.804 46.233C125.253 46.233 125.622 46.1179 125.912 45.8878C126.202 45.6577 126.416 45.3551 126.556 44.9801C126.695 44.6051 126.764 44.1989 126.764 43.7614C126.764 43.3239 126.695 42.9162 126.556 42.5384C126.416 42.1605 126.202 41.8551 125.912 41.6222C125.622 41.3892 125.253 41.2727 124.804 41.2727C124.355 41.2727 123.986 41.3892 123.696 41.6222C123.406 41.8551 123.192 42.1605 123.053 42.5384C122.914 42.9162 122.844 43.3239 122.844 43.7614C122.844 44.1989 122.914 44.6051 123.053 44.9801C123.192 45.3551 123.406 45.6577 123.696 45.8878C123.986 46.1179 124.355 46.233 124.804 46.233ZM131.964 47.1364C131.373 47.1364 130.855 46.9957 130.409 46.7145C129.966 46.4332 129.619 46.0398 129.369 45.5341C129.122 45.0284 128.998 44.4375 128.998 43.7614C128.998 43.0795 129.122 42.4844 129.369 41.9759C129.619 41.4673 129.966 41.0724 130.409 40.7912C130.855 40.5099 131.373 40.3693 131.964 40.3693C132.555 40.3693 133.072 40.5099 133.515 40.7912C133.961 41.0724 134.308 41.4673 134.555 41.9759C134.805 42.4844 134.93 43.0795 134.93 43.7614C134.93 44.4375 134.805 45.0284 134.555 45.5341C134.308 46.0398 133.961 46.4332 133.515 46.7145C133.072 46.9957 132.555 47.1364 131.964 47.1364ZM131.964 46.233C132.413 46.233 132.782 46.1179 133.072 45.8878C133.362 45.6577 133.577 45.3551 133.716 44.9801C133.855 44.6051 133.925 44.1989 133.925 43.7614C133.925 43.3239 133.855 42.9162 133.716 42.5384C133.577 42.1605 133.362 41.8551 133.072 41.6222C132.782 41.3892 132.413 41.2727 131.964 41.2727C131.515 41.2727 131.146 41.3892 130.856 41.6222C130.567 41.8551 130.352 42.1605 130.213 42.5384C130.074 42.9162 130.004 43.3239 130.004 43.7614C130.004 44.1989 130.074 44.6051 130.213 44.9801C130.352 45.3551 130.567 45.6577 130.856 45.8878C131.146 46.1179 131.515 46.233 131.964 46.233ZM136.465 47V40.4545H137.437V41.4432H137.505C137.624 41.1193 137.84 40.8565 138.153 40.6548C138.465 40.4531 138.818 40.3523 139.21 40.3523C139.284 40.3523 139.376 40.3537 139.487 40.3565C139.597 40.3594 139.681 40.3636 139.738 40.3693V41.392C139.704 41.3835 139.626 41.3707 139.504 41.3537C139.384 41.3338 139.258 41.3239 139.124 41.3239C138.806 41.3239 138.522 41.3906 138.272 41.5241C138.025 41.6548 137.829 41.8366 137.684 42.0696C137.542 42.2997 137.471 42.5625 137.471 42.858V47H136.465ZM141.68 45.8068L141.612 46.267C141.564 46.5909 141.49 46.9375 141.39 47.3068C141.294 47.6761 141.193 48.0241 141.088 48.3509C140.983 48.6776 140.896 48.9375 140.828 49.1307H140.061C140.098 48.9489 140.146 48.7088 140.206 48.4105C140.265 48.1122 140.325 47.7784 140.385 47.4091C140.447 47.0426 140.498 46.6676 140.538 46.2841L140.589 45.8068H141.68ZM146.578 39.2102V38.2727H153.123V39.2102H150.379V47H149.322V39.2102H146.578ZM155.653 47.1534C155.238 47.1534 154.862 47.0753 154.524 46.919C154.186 46.7599 153.917 46.5312 153.719 46.233C153.52 45.9318 153.42 45.5682 153.42 45.142C153.42 44.767 153.494 44.4631 153.642 44.2301C153.79 43.9943 153.987 43.8097 154.234 43.6761C154.481 43.5426 154.754 43.4432 155.052 43.3778C155.354 43.3097 155.656 43.2557 155.96 43.2159C156.358 43.1648 156.68 43.1264 156.927 43.1009C157.177 43.0724 157.359 43.0256 157.473 42.9602C157.589 42.8949 157.648 42.7812 157.648 42.6193V42.5852C157.648 42.1648 157.532 41.8381 157.302 41.6051C157.075 41.3722 156.73 41.2557 156.267 41.2557C155.787 41.2557 155.41 41.3608 155.138 41.571C154.865 41.7812 154.673 42.0057 154.562 42.2443L153.608 41.9034C153.778 41.5057 154.006 41.196 154.29 40.9744C154.577 40.75 154.889 40.5937 155.227 40.5057C155.568 40.4148 155.903 40.3693 156.233 40.3693C156.443 40.3693 156.684 40.3949 156.957 40.446C157.233 40.4943 157.498 40.5952 157.754 40.7486C158.013 40.902 158.227 41.1335 158.398 41.4432C158.568 41.7528 158.653 42.1676 158.653 42.6875V47H157.648V46.1136H157.596C157.528 46.2557 157.415 46.4077 157.256 46.5696C157.096 46.7315 156.885 46.8693 156.621 46.983C156.356 47.0966 156.034 47.1534 155.653 47.1534ZM155.807 46.25C156.204 46.25 156.54 46.1719 156.812 46.0156C157.088 45.8594 157.295 45.6577 157.434 45.4105C157.577 45.1634 157.648 44.9034 157.648 44.6307V43.7102C157.605 43.7614 157.511 43.8082 157.366 43.8509C157.224 43.8906 157.059 43.9261 156.872 43.9574C156.687 43.9858 156.507 44.0114 156.331 44.0341C156.157 44.054 156.017 44.071 155.909 44.0852C155.648 44.1193 155.403 44.1747 155.176 44.2514C154.952 44.3253 154.77 44.4375 154.631 44.5881C154.494 44.7358 154.426 44.9375 154.426 45.1932C154.426 45.5426 154.555 45.8068 154.814 45.9858C155.075 46.1619 155.406 46.25 155.807 46.25ZM161.972 47L159.977 40.4545H161.034L162.449 45.4659H162.517L163.915 40.4545H164.989L166.369 45.4489H166.438L167.852 40.4545H168.909L166.915 47H165.926L164.494 41.9716H164.392L162.96 47H161.972ZM170.239 47V40.4545H171.244V47H170.239ZM170.75 39.3636C170.554 39.3636 170.385 39.2969 170.243 39.1634C170.104 39.0298 170.034 38.8693 170.034 38.6818C170.034 38.4943 170.104 38.3338 170.243 38.2003C170.385 38.0668 170.554 38 170.75 38C170.946 38 171.114 38.0668 171.253 38.2003C171.395 38.3338 171.466 38.4943 171.466 38.6818C171.466 38.8693 171.395 39.0298 171.253 39.1634C171.114 39.2969 170.946 39.3636 170.75 39.3636ZM38.6948 58.4545C38.6436 58.0227 38.4363 57.6875 38.0726 57.4489C37.709 57.2102 37.263 57.0909 36.7346 57.0909C36.3482 57.0909 36.0101 57.1534 35.7203 57.2784C35.4334 57.4034 35.209 57.5753 35.0471 57.794C34.888 58.0128 34.8084 58.2614 34.8084 58.5398C34.8084 58.7727 34.8638 58.973 34.9746 59.1406C35.0882 59.3054 35.2331 59.4432 35.4093 59.554C35.5854 59.6619 35.7701 59.7514 35.9632 59.8224C36.1564 59.8906 36.334 59.946 36.4959 59.9886L37.3823 60.2273C37.6096 60.2869 37.8624 60.3693 38.1408 60.4744C38.4221 60.5795 38.6905 60.723 38.9462 60.9048C39.2047 61.0838 39.4178 61.3139 39.5854 61.5952C39.753 61.8764 39.8368 62.2216 39.8368 62.6307C39.8368 63.1023 39.7132 63.5284 39.4661 63.9091C39.2218 64.2898 38.8638 64.5923 38.3922 64.8168C37.9235 65.0412 37.3539 65.1534 36.6834 65.1534C36.0584 65.1534 35.5172 65.0526 35.0598 64.8509C34.6053 64.6491 34.2473 64.3679 33.986 64.0071C33.7275 63.6463 33.5811 63.2273 33.5471 62.75H34.638C34.6664 63.0795 34.7772 63.3523 34.9703 63.5682C35.1664 63.7812 35.4135 63.9403 35.7118 64.0455C36.013 64.1477 36.3368 64.1989 36.6834 64.1989C37.0868 64.1989 37.449 64.1335 37.7701 64.0028C38.0911 63.8693 38.3453 63.6847 38.5328 63.4489C38.7203 63.2102 38.8141 62.9318 38.8141 62.6136C38.8141 62.3239 38.7331 62.0881 38.5712 61.9062C38.4093 61.7244 38.1962 61.5767 37.932 61.4631C37.6678 61.3494 37.3823 61.25 37.0755 61.1648L36.0016 60.858C35.3198 60.6619 34.78 60.3821 34.3823 60.0185C33.9846 59.6548 33.7857 59.179 33.7857 58.5909C33.7857 58.1023 33.9178 57.6761 34.182 57.3125C34.449 56.946 34.807 56.6619 35.2559 56.4602C35.7076 56.2557 36.2118 56.1534 36.7686 56.1534C37.3311 56.1534 37.8311 56.2543 38.2686 56.456C38.7061 56.6548 39.0527 56.9276 39.3084 57.2741C39.5669 57.6207 39.7033 58.0142 39.7175 58.4545H38.6948ZM42.4437 61.0625V65H41.438V56.2727H42.4437V59.4773H42.5289C42.6824 59.1392 42.9125 58.8707 43.2193 58.6719C43.5289 58.4702 43.9409 58.3693 44.4551 58.3693C44.9011 58.3693 45.2917 58.4588 45.627 58.6378C45.9622 58.8139 46.2221 59.0852 46.4068 59.4517C46.5943 59.8153 46.688 60.2784 46.688 60.8409V65H45.6824V60.9091C45.6824 60.3892 45.5474 59.9872 45.2775 59.7031C45.0105 59.4162 44.6397 59.2727 44.1653 59.2727C43.8358 59.2727 43.5403 59.3423 43.2789 59.4815C43.0204 59.6207 42.8159 59.8239 42.6653 60.0909C42.5176 60.358 42.4437 60.6818 42.4437 61.0625ZM51.187 65.1364C50.5961 65.1364 50.0776 64.9957 49.6316 64.7145C49.1884 64.4332 48.8418 64.0398 48.5918 63.5341C48.3446 63.0284 48.2211 62.4375 48.2211 61.7614C48.2211 61.0795 48.3446 60.4844 48.5918 59.9759C48.8418 59.4673 49.1884 59.0724 49.6316 58.7912C50.0776 58.5099 50.5961 58.3693 51.187 58.3693C51.7779 58.3693 52.2949 58.5099 52.7381 58.7912C53.1841 59.0724 53.5307 59.4673 53.7779 59.9759C54.0279 60.4844 54.1529 61.0795 54.1529 61.7614C54.1529 62.4375 54.0279 63.0284 53.7779 63.5341C53.5307 64.0398 53.1841 64.4332 52.7381 64.7145C52.2949 64.9957 51.7779 65.1364 51.187 65.1364ZM51.187 64.233C51.6358 64.233 52.0051 64.1179 52.2949 63.8878C52.5847 63.6577 52.7992 63.3551 52.9384 62.9801C53.0776 62.6051 53.1472 62.1989 53.1472 61.7614C53.1472 61.3239 53.0776 60.9162 52.9384 60.5384C52.7992 60.1605 52.5847 59.8551 52.2949 59.6222C52.0051 59.3892 51.6358 59.2727 51.187 59.2727C50.7381 59.2727 50.3688 59.3892 50.079 59.6222C49.7892 59.8551 49.5748 60.1605 49.4355 60.5384C49.2963 60.9162 49.2267 61.3239 49.2267 61.7614C49.2267 62.1989 49.2963 62.6051 49.4355 62.9801C49.5748 63.3551 49.7892 63.6577 50.079 63.8878C50.3688 64.1179 50.7381 64.233 51.187 64.233ZM59.813 62.3239V58.4545H60.8187V65H59.813V63.892H59.7449C59.5914 64.2244 59.3528 64.5071 59.0289 64.7401C58.7051 64.9702 58.296 65.0852 57.8017 65.0852C57.3926 65.0852 57.0289 64.9957 56.7108 64.8168C56.3926 64.6349 56.1426 64.3622 55.9608 63.9986C55.7789 63.6321 55.688 63.1705 55.688 62.6136V58.4545H56.6937V62.5455C56.6937 63.0227 56.8272 63.4034 57.0943 63.6875C57.3642 63.9716 57.7079 64.1136 58.1255 64.1136C58.3755 64.1136 58.6298 64.0497 58.8883 63.9219C59.1497 63.794 59.3684 63.598 59.5446 63.3338C59.7235 63.0696 59.813 62.733 59.813 62.3239ZM65.5755 58.4545V59.3068H62.0471V58.4545H65.5755ZM63.1039 65V57.5511C63.1039 57.1761 63.1919 56.8636 63.3681 56.6136C63.5442 56.3636 63.7729 56.1761 64.0542 56.0511C64.3354 55.9261 64.6323 55.8636 64.9448 55.8636C65.1919 55.8636 65.3936 55.8835 65.5499 55.9233C65.7061 55.9631 65.8226 56 65.8993 56.0341L65.6096 56.9034C65.5584 56.8864 65.4874 56.8651 65.3965 56.8395C65.3084 56.8139 65.1919 56.8011 65.0471 56.8011C64.7147 56.8011 64.4746 56.8849 64.3269 57.0526C64.182 57.2202 64.1096 57.4659 64.1096 57.7898V65H63.1039ZM75.269 58.4545C75.2179 58.0227 75.0105 57.6875 74.6468 57.4489C74.2832 57.2102 73.8372 57.0909 73.3088 57.0909C72.9224 57.0909 72.5843 57.1534 72.2946 57.2784C72.0076 57.4034 71.7832 57.5753 71.6213 57.794C71.4622 58.0128 71.3826 58.2614 71.3826 58.5398C71.3826 58.7727 71.438 58.973 71.5488 59.1406C71.6625 59.3054 71.8074 59.4432 71.9835 59.554C72.1596 59.6619 72.3443 59.7514 72.5375 59.8224C72.7306 59.8906 72.9082 59.946 73.0701 59.9886L73.9565 60.2273C74.1838 60.2869 74.4366 60.3693 74.715 60.4744C74.9963 60.5795 75.2647 60.723 75.5204 60.9048C75.7789 61.0838 75.992 61.3139 76.1596 61.5952C76.3272 61.8764 76.411 62.2216 76.411 62.6307C76.411 63.1023 76.2875 63.5284 76.0403 63.9091C75.796 64.2898 75.438 64.5923 74.9664 64.8168C74.4977 65.0412 73.9281 65.1534 73.2576 65.1534C72.6326 65.1534 72.0914 65.0526 71.6341 64.8509C71.1795 64.6491 70.8216 64.3679 70.5602 64.0071C70.3017 63.6463 70.1554 63.2273 70.1213 62.75H71.2122C71.2406 63.0795 71.3514 63.3523 71.5446 63.5682C71.7406 63.7812 71.9877 63.9403 72.286 64.0455C72.5872 64.1477 72.911 64.1989 73.2576 64.1989C73.661 64.1989 74.0233 64.1335 74.3443 64.0028C74.6653 63.8693 74.9196 63.6847 75.1071 63.4489C75.2946 63.2102 75.3883 62.9318 75.3883 62.6136C75.3883 62.3239 75.3074 62.0881 75.1454 61.9062C74.9835 61.7244 74.7704 61.5767 74.5062 61.4631C74.242 61.3494 73.9565 61.25 73.6497 61.1648L72.5758 60.858C71.894 60.6619 71.3542 60.3821 70.9565 60.0185C70.5588 59.6548 70.3599 59.179 70.3599 58.5909C70.3599 58.1023 70.492 57.6761 70.7562 57.3125C71.0233 56.946 71.3812 56.6619 71.8301 56.4602C72.2818 56.2557 72.786 56.1534 73.3429 56.1534C73.9054 56.1534 74.4054 56.2543 74.8429 56.456C75.2804 56.6548 75.627 56.9276 75.8826 57.2741C76.1412 57.6207 76.2775 58.0142 76.2917 58.4545H75.269ZM80.8588 58.4545V59.3068H77.4668V58.4545H80.8588ZM78.4554 56.8864H79.4611V63.125C79.4611 63.4091 79.5023 63.6222 79.5847 63.7642C79.6699 63.9034 79.7779 63.9972 79.9086 64.0455C80.0421 64.0909 80.1827 64.1136 80.3304 64.1136C80.4412 64.1136 80.5321 64.108 80.6032 64.0966C80.6742 64.0824 80.731 64.071 80.7736 64.0625L80.9782 64.9659C80.91 64.9915 80.8148 65.017 80.6926 65.0426C80.5705 65.071 80.4157 65.0852 80.2282 65.0852C79.9441 65.0852 79.6657 65.0241 79.3929 64.902C79.123 64.7798 78.8986 64.5938 78.7196 64.3438C78.5435 64.0938 78.4554 63.7784 78.4554 63.3977V56.8864ZM82.3716 65V58.4545H83.3432V59.4432H83.4114C83.5307 59.1193 83.7466 58.8565 84.0591 58.6548C84.3716 58.4531 84.7239 58.3523 85.1159 58.3523C85.1898 58.3523 85.2821 58.3537 85.3929 58.3565C85.5037 58.3594 85.5875 58.3636 85.6444 58.3693V59.392C85.6103 59.3835 85.5321 59.3707 85.41 59.3537C85.2907 59.3338 85.1642 59.3239 85.0307 59.3239C84.7125 59.3239 84.4284 59.3906 84.1784 59.5241C83.9313 59.6548 83.7353 59.8366 83.5904 60.0696C83.4483 60.2997 83.3773 60.5625 83.3773 60.858V65H82.3716ZM89.3816 65.1364C88.7509 65.1364 88.2069 64.9972 87.7495 64.7188C87.2949 64.4375 86.9441 64.0455 86.6969 63.5426C86.4526 63.0369 86.3304 62.4489 86.3304 61.7784C86.3304 61.108 86.4526 60.517 86.6969 60.0057C86.9441 59.4915 87.2878 59.0909 87.7282 58.804C88.1713 58.5142 88.6884 58.3693 89.2793 58.3693C89.6202 58.3693 89.9569 58.4261 90.2892 58.5398C90.6216 58.6534 90.9242 58.8381 91.1969 59.0938C91.4696 59.3466 91.687 59.6818 91.8489 60.0994C92.0108 60.517 92.0918 61.0312 92.0918 61.642V62.0682H87.0463V61.1989H91.0691C91.0691 60.8295 90.9952 60.5 90.8475 60.2102C90.7026 59.9205 90.4952 59.6918 90.2253 59.5241C89.9583 59.3565 89.6429 59.2727 89.2793 59.2727C88.8787 59.2727 88.5321 59.3722 88.2395 59.571C87.9498 59.767 87.7267 60.0227 87.5705 60.3381C87.4142 60.6534 87.3361 60.9915 87.3361 61.3523V61.9318C87.3361 62.4261 87.4213 62.8452 87.5918 63.1889C87.7651 63.5298 88.0051 63.7898 88.312 63.9688C88.6188 64.1449 88.9753 64.233 89.3816 64.233C89.6458 64.233 89.8844 64.196 90.0975 64.1222C90.3134 64.0455 90.4995 63.9318 90.6557 63.7812C90.812 63.6278 90.9327 63.4375 91.0179 63.2102L91.9895 63.483C91.8873 63.8125 91.7154 64.1023 91.4739 64.3523C91.2324 64.5994 90.9341 64.7926 90.579 64.9318C90.2239 65.0682 89.8248 65.1364 89.3816 65.1364ZM96.3659 65.1364C95.7353 65.1364 95.1912 64.9972 94.7338 64.7188C94.2793 64.4375 93.9284 64.0455 93.6813 63.5426C93.437 63.0369 93.3148 62.4489 93.3148 61.7784C93.3148 61.108 93.437 60.517 93.6813 60.0057C93.9284 59.4915 94.2722 59.0909 94.7125 58.804C95.1557 58.5142 95.6728 58.3693 96.2637 58.3693C96.6046 58.3693 96.9412 58.4261 97.2736 58.5398C97.606 58.6534 97.9086 58.8381 98.1813 59.0938C98.454 59.3466 98.6713 59.6818 98.8333 60.0994C98.9952 60.517 99.0762 61.0312 99.0762 61.642V62.0682H94.0307V61.1989H98.0534C98.0534 60.8295 97.9796 60.5 97.8319 60.2102C97.687 59.9205 97.4796 59.6918 97.2097 59.5241C96.9426 59.3565 96.6273 59.2727 96.2637 59.2727C95.8631 59.2727 95.5165 59.3722 95.2239 59.571C94.9341 59.767 94.7111 60.0227 94.5549 60.3381C94.3986 60.6534 94.3205 60.9915 94.3205 61.3523V61.9318C94.3205 62.4261 94.4057 62.8452 94.5762 63.1889C94.7495 63.5298 94.9895 63.7898 95.2963 63.9688C95.6032 64.1449 95.9597 64.233 96.3659 64.233C96.6301 64.233 96.8688 64.196 97.0819 64.1222C97.2978 64.0455 97.4838 63.9318 97.6401 63.7812C97.7963 63.6278 97.9171 63.4375 98.0023 63.2102L98.9739 63.483C98.8716 63.8125 98.6998 64.1023 98.4583 64.3523C98.2168 64.5994 97.9185 64.7926 97.5634 64.9318C97.2083 65.0682 96.8091 65.1364 96.3659 65.1364ZM103.453 58.4545V59.3068H100.061V58.4545H103.453ZM101.049 56.8864H102.055V63.125C102.055 63.4091 102.096 63.6222 102.178 63.7642C102.264 63.9034 102.372 63.9972 102.502 64.0455C102.636 64.0909 102.776 64.1136 102.924 64.1136C103.035 64.1136 103.126 64.108 103.197 64.0966C103.268 64.0824 103.325 64.071 103.367 64.0625L103.572 64.9659C103.504 64.9915 103.409 65.017 103.286 65.0426C103.164 65.071 103.009 65.0852 102.822 65.0852C102.538 65.0852 102.259 65.0241 101.987 64.902C101.717 64.7798 101.492 64.5938 101.313 64.3438C101.137 64.0938 101.049 63.7784 101.049 63.3977V56.8864ZM106.465 63.8068L106.397 64.267C106.349 64.5909 106.275 64.9375 106.176 65.3068C106.079 65.6761 105.978 66.0241 105.873 66.3509C105.768 66.6776 105.681 66.9375 105.613 67.1307H104.846C104.883 66.9489 104.931 66.7088 104.991 66.4105C105.051 66.1122 105.11 65.7784 105.17 65.4091C105.232 65.0426 105.284 64.6676 105.323 64.2841L105.374 63.8068H106.465ZM111.94 65H110.832L114.037 56.2727H115.128L118.332 65H117.224L114.616 57.6534H114.548L111.94 65ZM112.349 61.5909H116.815V62.5284H112.349V61.5909ZM120.561 56.2727V65H119.555V56.2727H120.561ZM132.835 56.2727V65H131.812L127.056 58.1477H126.971V65H125.914V56.2727H126.937L131.71 63.142H131.795V56.2727H132.835ZM136.739 65.1534C136.324 65.1534 135.948 65.0753 135.61 64.919C135.272 64.7599 135.003 64.5312 134.805 64.233C134.606 63.9318 134.506 63.5682 134.506 63.142C134.506 62.767 134.58 62.4631 134.728 62.2301C134.876 61.9943 135.073 61.8097 135.32 61.6761C135.567 61.5426 135.84 61.4432 136.138 61.3778C136.439 61.3097 136.742 61.2557 137.046 61.2159C137.444 61.1648 137.766 61.1264 138.013 61.1009C138.263 61.0724 138.445 61.0256 138.559 60.9602C138.675 60.8949 138.733 60.7812 138.733 60.6193V60.5852C138.733 60.1648 138.618 59.8381 138.388 59.6051C138.161 59.3722 137.816 59.2557 137.353 59.2557C136.873 59.2557 136.496 59.3608 136.224 59.571C135.951 59.7812 135.759 60.0057 135.648 60.2443L134.694 59.9034C134.864 59.5057 135.091 59.196 135.376 58.9744C135.662 58.75 135.975 58.5937 136.313 58.5057C136.654 58.4148 136.989 58.3693 137.319 58.3693C137.529 58.3693 137.77 58.3949 138.043 58.446C138.319 58.4943 138.584 58.5952 138.84 58.7486C139.099 58.902 139.313 59.1335 139.483 59.4432C139.654 59.7528 139.739 60.1676 139.739 60.6875V65H138.733V64.1136H138.682C138.614 64.2557 138.501 64.4077 138.341 64.5696C138.182 64.7315 137.971 64.8693 137.706 64.983C137.442 65.0966 137.12 65.1534 136.739 65.1534ZM136.893 64.25C137.29 64.25 137.626 64.1719 137.898 64.0156C138.174 63.8594 138.381 63.6577 138.52 63.4105C138.662 63.1634 138.733 62.9034 138.733 62.6307V61.7102C138.691 61.7614 138.597 61.8082 138.452 61.8509C138.31 61.8906 138.145 61.9261 137.958 61.9574C137.773 61.9858 137.593 62.0114 137.417 62.0341C137.243 62.054 137.103 62.071 136.995 62.0852C136.733 62.1193 136.489 62.1747 136.262 62.2514C136.037 62.3253 135.856 62.4375 135.716 62.5881C135.58 62.7358 135.512 62.9375 135.512 63.1932C135.512 63.5426 135.641 63.8068 135.9 63.9858C136.161 64.1619 136.492 64.25 136.893 64.25ZM142.58 61.0625V65H141.575V56.2727H142.58V59.4773H142.666C142.819 59.1392 143.049 58.8707 143.356 58.6719C143.666 58.4702 144.078 58.3693 144.592 58.3693C145.038 58.3693 145.428 58.4588 145.764 58.6378C146.099 58.8139 146.359 59.0852 146.544 59.4517C146.731 59.8153 146.825 60.2784 146.825 60.8409V65H145.819V60.9091C145.819 60.3892 145.684 59.9872 145.414 59.7031C145.147 59.4162 144.776 59.2727 144.302 59.2727C143.972 59.2727 143.677 59.3423 143.416 59.4815C143.157 59.6207 142.953 59.8239 142.802 60.0909C142.654 60.358 142.58 60.6818 142.58 61.0625ZM149.078 67.4545C148.907 67.4545 148.756 67.4403 148.622 67.4119C148.488 67.3864 148.396 67.3608 148.345 67.3352L148.601 66.4489C148.845 66.5114 149.061 66.5341 149.248 66.517C149.436 66.5 149.602 66.4162 149.747 66.2656C149.895 66.1179 150.03 65.8778 150.152 65.5455L150.339 65.0341L147.919 58.4545H149.01L150.817 63.6705H150.885L152.692 58.4545H153.782L151.004 65.9545C150.879 66.2926 150.724 66.5724 150.54 66.794C150.355 67.0185 150.14 67.1847 149.896 67.2926C149.655 67.4006 149.382 67.4545 149.078 67.4545ZM156.837 65.1534C156.422 65.1534 156.046 65.0753 155.708 64.919C155.369 64.7599 155.101 64.5312 154.902 64.233C154.703 63.9318 154.604 63.5682 154.604 63.142C154.604 62.767 154.678 62.4631 154.825 62.2301C154.973 61.9943 155.171 61.8097 155.418 61.6761C155.665 61.5426 155.938 61.4432 156.236 61.3778C156.537 61.3097 156.84 61.2557 157.144 61.2159C157.541 61.1648 157.864 61.1264 158.111 61.1009C158.361 61.0724 158.543 61.0256 158.656 60.9602C158.773 60.8949 158.831 60.7812 158.831 60.6193V60.5852C158.831 60.1648 158.716 59.8381 158.486 59.6051C158.259 59.3722 157.914 59.2557 157.45 59.2557C156.97 59.2557 156.594 59.3608 156.321 59.571C156.048 59.7812 155.857 60.0057 155.746 60.2443L154.791 59.9034C154.962 59.5057 155.189 59.196 155.473 58.9744C155.76 58.75 156.073 58.5937 156.411 58.5057C156.752 58.4148 157.087 58.3693 157.416 58.3693C157.627 58.3693 157.868 58.3949 158.141 58.446C158.416 58.4943 158.682 58.5952 158.938 58.7486C159.196 58.902 159.411 59.1335 159.581 59.4432C159.752 59.7528 159.837 60.1676 159.837 60.6875V65H158.831V64.1136H158.78C158.712 64.2557 158.598 64.4077 158.439 64.5696C158.28 64.7315 158.068 64.8693 157.804 64.983C157.54 65.0966 157.218 65.1534 156.837 65.1534ZM156.99 64.25C157.388 64.25 157.723 64.1719 157.996 64.0156C158.271 63.8594 158.479 63.6577 158.618 63.4105C158.76 63.1634 158.831 62.9034 158.831 62.6307V61.7102C158.789 61.7614 158.695 61.8082 158.55 61.8509C158.408 61.8906 158.243 61.9261 158.056 61.9574C157.871 61.9858 157.691 62.0114 157.514 62.0341C157.341 62.054 157.2 62.071 157.093 62.0852C156.831 62.1193 156.587 62.1747 156.36 62.2514C156.135 62.3253 155.953 62.4375 155.814 62.5881C155.678 62.7358 155.61 62.9375 155.61 63.1932C155.61 63.5426 155.739 63.8068 155.997 63.9858C156.259 64.1619 156.59 64.25 156.99 64.25ZM162.678 61.0625V65H161.672V58.4545H162.644V59.4773H162.729C162.883 59.1449 163.116 58.8778 163.428 58.6761C163.741 58.4716 164.144 58.3693 164.638 58.3693C165.081 58.3693 165.469 58.4602 165.802 58.642C166.134 58.821 166.393 59.0938 166.577 59.4602C166.762 59.8239 166.854 60.2841 166.854 60.8409V65H165.849V60.9091C165.849 60.3949 165.715 59.9943 165.448 59.7074C165.181 59.4176 164.814 59.2727 164.349 59.2727C164.028 59.2727 163.741 59.3423 163.488 59.4815C163.238 59.6207 163.04 59.8239 162.895 60.0909C162.751 60.358 162.678 60.6818 162.678 61.0625ZM170.192 63.8068L170.124 64.267C170.075 64.5909 170.002 64.9375 169.902 65.3068C169.806 65.6761 169.705 66.0241 169.6 66.3509C169.494 66.6776 169.408 66.9375 169.34 67.1307H168.573C168.61 66.9489 168.658 66.7088 168.718 66.4105C168.777 66.1122 168.837 65.7784 168.896 65.4091C168.959 65.0426 169.01 64.6676 169.05 64.2841L169.101 63.8068H170.192ZM42.3888 83V74.2727H47.6559V75.2102H43.4457V78.1591H47.3832V79.0966H43.4457V82.0625H47.7241V83H42.3888ZM51.3505 83.1534C50.9357 83.1534 50.5593 83.0753 50.2212 82.919C49.8832 82.7599 49.6147 82.5312 49.4158 82.233C49.217 81.9318 49.1175 81.5682 49.1175 81.142C49.1175 80.767 49.1914 80.4631 49.3391 80.2301C49.4869 79.9943 49.6843 79.8097 49.9315 79.6761C50.1786 79.5426 50.4513 79.4432 50.7496 79.3778C51.0508 79.3097 51.3533 79.2557 51.6573 79.2159C52.055 79.1648 52.3775 79.1264 52.6246 79.1009C52.8746 79.0724 53.0565 79.0256 53.1701 78.9602C53.2866 78.8949 53.3448 78.7812 53.3448 78.6193V78.5852C53.3448 78.1648 53.2298 77.8381 52.9996 77.6051C52.7724 77.3722 52.4272 77.2557 51.9641 77.2557C51.484 77.2557 51.1076 77.3608 50.8349 77.571C50.5621 77.7812 50.3704 78.0057 50.2596 78.2443L49.305 77.9034C49.4755 77.5057 49.7028 77.196 49.9869 76.9744C50.2738 76.75 50.5863 76.5937 50.9244 76.5057C51.2653 76.4148 51.6005 76.3693 51.93 76.3693C52.1403 76.3693 52.3817 76.3949 52.6545 76.446C52.93 76.4943 53.1957 76.5952 53.4513 76.7486C53.7099 76.902 53.9244 77.1335 54.0948 77.4432C54.2653 77.7528 54.3505 78.1676 54.3505 78.6875V83H53.3448V82.1136H53.2937C53.2255 82.2557 53.1119 82.4077 52.9528 82.5696C52.7937 82.7315 52.582 82.8693 52.3178 82.983C52.0536 83.0966 51.7312 83.1534 51.3505 83.1534ZM51.5039 82.25C51.9016 82.25 52.2369 82.1719 52.5096 82.0156C52.7852 81.8594 52.9925 81.6577 53.1317 81.4105C53.2738 81.1634 53.3448 80.9034 53.3448 80.6307V79.7102C53.3022 79.7614 53.2085 79.8082 53.0636 79.8509C52.9215 79.8906 52.7567 79.9261 52.5692 79.9574C52.3846 79.9858 52.2042 80.0114 52.0281 80.0341C51.8548 80.054 51.7141 80.071 51.6062 80.0852C51.3448 80.1193 51.1005 80.1747 50.8732 80.2514C50.6488 80.3253 50.467 80.4375 50.3278 80.5881C50.1914 80.7358 50.1232 80.9375 50.1232 81.1932C50.1232 81.5426 50.2525 81.8068 50.511 81.9858C50.7724 82.1619 51.1033 82.25 51.5039 82.25ZM60.8224 77.9205L59.919 78.1761C59.8622 78.0256 59.7784 77.8793 59.6676 77.7372C59.5597 77.5923 59.4119 77.473 59.2244 77.3793C59.0369 77.2855 58.7969 77.2386 58.5043 77.2386C58.1037 77.2386 57.7699 77.331 57.5028 77.5156C57.2386 77.6974 57.1065 77.929 57.1065 78.2102C57.1065 78.4602 57.1974 78.6577 57.3793 78.8026C57.5611 78.9474 57.8452 79.0682 58.2315 79.1648L59.2031 79.4034C59.7884 79.5455 60.2244 79.7628 60.5114 80.0554C60.7983 80.3452 60.9418 80.7187 60.9418 81.1761C60.9418 81.5511 60.8338 81.8864 60.6179 82.1818C60.4048 82.4773 60.1065 82.7102 59.723 82.8807C59.3395 83.0511 58.8935 83.1364 58.3849 83.1364C57.7173 83.1364 57.1648 82.9915 56.7273 82.7017C56.2898 82.4119 56.0128 81.9886 55.8963 81.4318L56.8509 81.1932C56.9418 81.5455 57.1136 81.8097 57.3665 81.9858C57.6222 82.1619 57.956 82.25 58.3679 82.25C58.8366 82.25 59.2088 82.1506 59.4844 81.9517C59.7628 81.75 59.902 81.5085 59.902 81.2273C59.902 81 59.8224 80.8097 59.6634 80.6562C59.5043 80.5 59.2599 80.3835 58.9304 80.3068L57.8395 80.0511C57.2401 79.9091 56.7997 79.6889 56.5185 79.3906C56.2401 79.0895 56.1009 78.7131 56.1009 78.2614C56.1009 77.892 56.2045 77.5653 56.4119 77.2812C56.6222 76.9972 56.9077 76.7741 57.2685 76.6122C57.6321 76.4503 58.044 76.3693 58.5043 76.3693C59.152 76.3693 59.6605 76.5114 60.0298 76.7955C60.402 77.0795 60.6662 77.4545 60.8224 77.9205ZM65.3022 76.4545V77.3068H61.9102V76.4545H65.3022ZM62.8988 74.8864H63.9045V81.125C63.9045 81.4091 63.9457 81.6222 64.0281 81.7642C64.1133 81.9034 64.2212 81.9972 64.3519 82.0455C64.4854 82.0909 64.6261 82.1136 64.7738 82.1136C64.8846 82.1136 64.9755 82.108 65.0465 82.0966C65.1175 82.0824 65.1744 82.071 65.217 82.0625L65.4215 82.9659C65.3533 82.9915 65.2582 83.017 65.136 83.0426C65.0138 83.071 64.859 83.0852 64.6715 83.0852C64.3874 83.0852 64.109 83.0241 63.8363 82.902C63.5664 82.7798 63.342 82.5938 63.163 82.3438C62.9869 82.0938 62.8988 81.7784 62.8988 81.3977V74.8864ZM73.2411 74.2727V83H72.1843V75.3807H72.1332L70.0025 76.7955V75.7216L72.1843 74.2727H73.2411ZM78.5295 74.1534C78.8874 74.1562 79.2454 74.2244 79.6033 74.358C79.9613 74.4915 80.288 74.7131 80.5835 75.0227C80.8789 75.3295 81.1161 75.7486 81.2951 76.2798C81.4741 76.8111 81.5636 77.4773 81.5636 78.2784C81.5636 79.054 81.4897 79.7429 81.342 80.3452C81.1971 80.9446 80.9869 81.4503 80.7113 81.8622C80.4386 82.2741 80.1062 82.5866 79.7141 82.7997C79.3249 83.0128 78.8846 83.1193 78.3931 83.1193C77.9045 83.1193 77.4684 83.0227 77.0849 82.8295C76.7042 82.6335 76.3917 82.3622 76.1474 82.0156C75.9059 81.6662 75.7511 81.2614 75.6829 80.8011H76.7227C76.8164 81.2017 77.0025 81.5327 77.2809 81.794C77.5621 82.0526 77.9329 82.1818 78.3931 82.1818C79.0664 82.1818 79.5977 81.8878 79.9869 81.2997C80.3789 80.7116 80.5749 79.8807 80.5749 78.8068H80.5067C80.3477 79.0455 80.1587 79.2514 79.94 79.4247C79.7212 79.598 79.4783 79.7315 79.2113 79.8253C78.9442 79.919 78.6602 79.9659 78.359 79.9659C77.859 79.9659 77.4002 79.8423 76.9826 79.5952C76.5678 79.3452 76.2354 79.0028 75.9854 78.5682C75.7383 78.1307 75.6147 77.6307 75.6147 77.0682C75.6147 76.5341 75.734 76.0455 75.9727 75.6023C76.2141 75.1562 76.5522 74.8011 76.9869 74.5369C77.4244 74.2727 77.9386 74.1449 78.5295 74.1534ZM78.5295 75.0909C78.1715 75.0909 77.8491 75.1804 77.5621 75.3594C77.2781 75.5355 77.0522 75.7741 76.8846 76.0753C76.7198 76.3736 76.6374 76.7045 76.6374 77.0682C76.6374 77.4318 76.717 77.7628 76.8761 78.0611C77.038 78.3565 77.2582 78.5923 77.5366 78.7685C77.8178 78.9418 78.1374 79.0284 78.4954 79.0284C78.7653 79.0284 79.0167 78.9759 79.2496 78.8707C79.4826 78.7628 79.6857 78.6165 79.859 78.4318C80.0352 78.2443 80.1729 78.0327 80.2724 77.7969C80.3718 77.5582 80.4215 77.3097 80.4215 77.0511C80.4215 76.7102 80.3391 76.3906 80.1744 76.0923C80.0124 75.794 79.788 75.5526 79.5011 75.3679C79.217 75.1832 78.8931 75.0909 78.5295 75.0909ZM86.3416 73.8636L83.5291 84.3125H82.6087L85.4212 73.8636H86.3416ZM87.5167 83V82.233L90.3974 79.0795C90.7354 78.7102 91.0138 78.3892 91.2326 78.1165C91.4513 77.8409 91.6133 77.5824 91.7184 77.3409C91.8263 77.0966 91.8803 76.8409 91.8803 76.5739C91.8803 76.267 91.8065 76.0014 91.6587 75.777C91.5138 75.5526 91.315 75.3793 91.0621 75.2571C90.8093 75.1349 90.5252 75.0739 90.2099 75.0739C89.8746 75.0739 89.582 75.1435 89.332 75.2827C89.0849 75.419 88.8931 75.6108 88.7567 75.858C88.6232 76.1051 88.5565 76.3949 88.5565 76.7273H87.5508C87.5508 76.2159 87.6687 75.767 87.9045 75.3807C88.1403 74.9943 88.4613 74.6932 88.8675 74.4773C89.2766 74.2614 89.7354 74.1534 90.244 74.1534C90.7553 74.1534 91.2085 74.2614 91.6033 74.4773C91.9982 74.6932 92.3079 74.9844 92.5323 75.3509C92.7567 75.7173 92.869 76.125 92.869 76.5739C92.869 76.8949 92.8107 77.2088 92.6942 77.5156C92.5806 77.8196 92.3817 78.1591 92.0977 78.5341C91.8164 78.9062 91.4258 79.3608 90.9258 79.8977L88.9656 81.9943V82.0625H93.0224V83H87.5167ZM96.2994 81.8068L96.2312 82.267C96.1829 82.5909 96.109 82.9375 96.0096 83.3068C95.913 83.6761 95.8121 84.0241 95.707 84.3509C95.6019 84.6776 95.5153 84.9375 95.4471 85.1307H94.68C94.717 84.9489 94.7653 84.7088 94.8249 84.4105C94.8846 84.1122 94.9442 83.7784 95.0039 83.4091C95.0664 83.0426 95.1175 82.6676 95.1573 82.2841L95.2085 81.8068H96.2994ZM102.032 83H100.924L104.129 74.2727H105.219L108.424 83H107.316L104.708 75.6534H104.64L102.032 83ZM102.441 79.5909H106.907V80.5284H102.441V79.5909ZM109.783 83V74.2727H110.789V77.4943H110.874C110.948 77.3807 111.05 77.2358 111.181 77.0597C111.315 76.8807 111.505 76.7216 111.752 76.5824C112.002 76.4403 112.34 76.3693 112.766 76.3693C113.317 76.3693 113.803 76.5071 114.224 76.7827C114.644 77.0582 114.972 77.4489 115.208 77.9545C115.444 78.4602 115.562 79.0568 115.562 79.7443C115.562 80.4375 115.444 81.0384 115.208 81.5469C114.972 82.0526 114.646 82.4446 114.228 82.723C113.81 82.9986 113.329 83.1364 112.783 83.1364C112.363 83.1364 112.026 83.0668 111.773 82.9276C111.521 82.7855 111.326 82.625 111.19 82.446C111.053 82.2642 110.948 82.1136 110.874 81.9943H110.755V83H109.783ZM110.772 79.7273C110.772 80.2216 110.844 80.6577 110.989 81.0355C111.134 81.4105 111.346 81.7045 111.624 81.9176C111.903 82.1278 112.244 82.233 112.647 82.233C113.067 82.233 113.418 82.1222 113.7 81.9006C113.984 81.6761 114.197 81.375 114.339 80.9972C114.484 80.6165 114.556 80.1932 114.556 79.7273C114.556 79.267 114.485 78.8523 114.343 78.483C114.204 78.1108 113.992 77.8168 113.708 77.6009C113.427 77.3821 113.073 77.2727 112.647 77.2727C112.238 77.2727 111.894 77.3764 111.616 77.5838C111.337 77.7884 111.127 78.0753 110.985 78.4446C110.843 78.8111 110.772 79.2386 110.772 79.7273ZM121.225 80.3239V76.4545H122.231V83H121.225V81.892H121.157C121.004 82.2244 120.765 82.5071 120.441 82.7401C120.117 82.9702 119.708 83.0852 119.214 83.0852C118.805 83.0852 118.441 82.9957 118.123 82.8168C117.805 82.6349 117.555 82.3622 117.373 81.9986C117.191 81.6321 117.1 81.1705 117.1 80.6136V76.4545H118.106V80.5455C118.106 81.0227 118.239 81.4034 118.506 81.6875C118.776 81.9716 119.12 82.1136 119.538 82.1136C119.788 82.1136 120.042 82.0497 120.3 81.9219C120.562 81.794 120.781 81.598 120.957 81.3338C121.136 81.0696 121.225 80.733 121.225 80.3239ZM130.277 83H127.584V74.2727H130.397C131.243 74.2727 131.968 74.4474 132.57 74.7969C133.172 75.1435 133.634 75.642 133.955 76.2926C134.276 76.9403 134.436 77.7159 134.436 78.6193C134.436 79.5284 134.275 80.3111 133.951 80.9673C133.627 81.6207 133.155 82.1236 132.536 82.4759C131.917 82.8253 131.164 83 130.277 83ZM128.641 82.0625H130.209C130.931 82.0625 131.529 81.9233 132.003 81.6449C132.478 81.3665 132.831 80.9702 133.064 80.456C133.297 79.9418 133.414 79.3295 133.414 78.6193C133.414 77.9148 133.299 77.3082 133.069 76.7997C132.838 76.2884 132.495 75.8963 132.037 75.6236C131.58 75.348 131.01 75.2102 130.328 75.2102H128.641V82.0625ZM137.078 79.0625V83H136.073V74.2727H137.078V77.4773H137.164C137.317 77.1392 137.547 76.8707 137.854 76.6719C138.164 76.4702 138.576 76.3693 139.09 76.3693C139.536 76.3693 139.926 76.4588 140.262 76.6378C140.597 76.8139 140.857 77.0852 141.042 77.4517C141.229 77.8153 141.323 78.2784 141.323 78.8409V83H140.317V78.9091C140.317 78.3892 140.182 77.9872 139.912 77.7031C139.645 77.4162 139.275 77.2727 138.8 77.2727C138.471 77.2727 138.175 77.3423 137.914 77.4815C137.655 77.6207 137.451 77.8239 137.3 78.0909C137.152 78.358 137.078 78.6818 137.078 79.0625ZM145.089 83.1534C144.674 83.1534 144.298 83.0753 143.96 82.919C143.621 82.7599 143.353 82.5312 143.154 82.233C142.955 81.9318 142.856 81.5682 142.856 81.142C142.856 80.767 142.93 80.4631 143.077 80.2301C143.225 79.9943 143.423 79.8097 143.67 79.6761C143.917 79.5426 144.19 79.4432 144.488 79.3778C144.789 79.3097 145.092 79.2557 145.396 79.2159C145.793 79.1648 146.116 79.1264 146.363 79.1009C146.613 79.0724 146.795 79.0256 146.908 78.9602C147.025 78.8949 147.083 78.7812 147.083 78.6193V78.5852C147.083 78.1648 146.968 77.8381 146.738 77.6051C146.511 77.3722 146.165 77.2557 145.702 77.2557C145.222 77.2557 144.846 77.3608 144.573 77.571C144.3 77.7812 144.109 78.0057 143.998 78.2443L143.043 77.9034C143.214 77.5057 143.441 77.196 143.725 76.9744C144.012 76.75 144.325 76.5937 144.663 76.5057C145.004 76.4148 145.339 76.3693 145.668 76.3693C145.879 76.3693 146.12 76.3949 146.393 76.446C146.668 76.4943 146.934 76.5952 147.19 76.7486C147.448 76.902 147.663 77.1335 147.833 77.4432C148.004 77.7528 148.089 78.1676 148.089 78.6875V83H147.083V82.1136H147.032C146.964 82.2557 146.85 82.4077 146.691 82.5696C146.532 82.7315 146.32 82.8693 146.056 82.983C145.792 83.0966 145.469 83.1534 145.089 83.1534ZM145.242 82.25C145.64 82.25 145.975 82.1719 146.248 82.0156C146.523 81.8594 146.731 81.6577 146.87 81.4105C147.012 81.1634 147.083 80.9034 147.083 80.6307V79.7102C147.04 79.7614 146.947 79.8082 146.802 79.8509C146.66 79.8906 146.495 79.9261 146.308 79.9574C146.123 79.9858 145.942 80.0114 145.766 80.0341C145.593 80.054 145.452 80.071 145.344 80.0852C145.083 80.1193 144.839 80.1747 144.612 80.2514C144.387 80.3253 144.205 80.4375 144.066 80.5881C143.93 80.7358 143.862 80.9375 143.862 81.1932C143.862 81.5426 143.991 81.8068 144.249 81.9858C144.511 82.1619 144.842 82.25 145.242 82.25ZM150.061 83V74.2727H151.066V77.4943H151.152C151.225 77.3807 151.328 77.2358 151.458 77.0597C151.592 76.8807 151.782 76.7216 152.029 76.5824C152.279 76.4403 152.618 76.3693 153.044 76.3693C153.595 76.3693 154.081 76.5071 154.501 76.7827C154.922 77.0582 155.25 77.4489 155.485 77.9545C155.721 78.4602 155.839 79.0568 155.839 79.7443C155.839 80.4375 155.721 81.0384 155.485 81.5469C155.25 82.0526 154.923 82.4446 154.505 82.723C154.088 82.9986 153.606 83.1364 153.061 83.1364C152.64 83.1364 152.304 83.0668 152.051 82.9276C151.798 82.7855 151.603 82.625 151.467 82.446C151.331 82.2642 151.225 82.1136 151.152 81.9943H151.032V83H150.061ZM151.049 79.7273C151.049 80.2216 151.122 80.6577 151.267 81.0355C151.412 81.4105 151.623 81.7045 151.902 81.9176C152.18 82.1278 152.521 82.233 152.924 82.233C153.345 82.233 153.696 82.1222 153.977 81.9006C154.261 81.6761 154.474 81.375 154.616 80.9972C154.761 80.6165 154.833 80.1932 154.833 79.7273C154.833 79.267 154.762 78.8523 154.62 78.483C154.481 78.1108 154.27 77.8168 153.985 77.6009C153.704 77.3821 153.35 77.2727 152.924 77.2727C152.515 77.2727 152.172 77.3764 151.893 77.5838C151.615 77.7884 151.404 78.0753 151.262 78.4446C151.12 78.8111 151.049 79.2386 151.049 79.7273ZM157.377 83V76.4545H158.383V83H157.377ZM157.889 75.3636C157.693 75.3636 157.524 75.2969 157.382 75.1634C157.243 75.0298 157.173 74.8693 157.173 74.6818C157.173 74.4943 157.243 74.3338 157.382 74.2003C157.524 74.0668 157.693 74 157.889 74C158.085 74 158.252 74.0668 158.392 74.2003C158.534 74.3338 158.605 74.4943 158.605 74.6818C158.605 74.8693 158.534 75.0298 158.392 75.1634C158.252 75.2969 158.085 75.3636 157.889 75.3636ZM161.725 81.8068L161.657 82.267C161.609 82.5909 161.535 82.9375 161.435 83.3068C161.339 83.6761 161.238 84.0241 161.133 84.3509C161.028 84.6776 160.941 84.9375 160.873 85.1307H160.106C160.143 84.9489 160.191 84.7088 160.251 84.4105C160.31 84.1122 160.37 83.7784 160.43 83.4091C160.492 83.0426 160.543 82.6676 160.583 82.2841L160.634 81.8068H161.725ZM96.6962 92.2727H97.753V98.0511C97.753 98.6477 97.6124 99.1804 97.3311 99.6491C97.0527 100.115 96.6593 100.483 96.1507 100.753C95.6422 101.02 95.0456 101.153 94.361 101.153C93.6763 101.153 93.0797 101.02 92.5712 100.753C92.0627 100.483 91.6678 100.115 91.3865 99.6491C91.1081 99.1804 90.9689 98.6477 90.9689 98.0511V92.2727H92.0257V97.9659C92.0257 98.392 92.1195 98.7713 92.307 99.1037C92.4945 99.4332 92.7615 99.6932 93.1081 99.8835C93.4576 100.071 93.8752 100.165 94.361 100.165C94.8468 100.165 95.2644 100.071 95.6138 99.8835C95.9632 99.6932 96.2303 99.4332 96.415 99.1037C96.6025 98.7713 96.6962 98.392 96.6962 97.9659V92.2727ZM100.221 101H99.1135L102.318 92.2727H103.409L106.613 101H105.506L102.898 93.6534H102.829L100.221 101ZM100.631 97.5909H105.096V98.5284H100.631V97.5909ZM107.973 101V92.2727H113.24V93.2102H109.03V96.1591H112.967V97.0966H109.03V100.062H113.308V101H107.973Z" fill="#475467"/>
<path d="M108.071 115.485C108.962 115.485 109.408 116.562 108.778 117.192L102.707 123.263C102.317 123.654 101.683 123.654 101.293 123.263L95.2218 117.192C94.5919 116.562 95.038 115.485 95.9289 115.485L108.071 115.485Z" fill="white"/>
</g>
<defs>
<filter id="filter0_d_132_10904" x="121.625" y="193.625" width="18.7499" height="20.75" filterUnits="userSpaceOnUse" color-interpolation-filters="sRGB">
<feFlood flood-opacity="0" result="BackgroundImageFix"/>
<feColorMatrix in="SourceAlpha" type="matrix" values="0 0 0 0 0 0 0 0 0 0 0 0 0 0 0 0 0 0 127 0" result="hardAlpha"/>
<feOffset dy="1"/>
<feGaussianBlur stdDeviation="1"/>
<feColorMatrix type="matrix" values="0 0 0 0 0 0 0 0 0 0 0 0 0 0 0 0 0 0 0.24 0"/>
<feBlend mode="normal" in2="BackgroundImageFix" result="effect1_dropShadow_132_10904"/>
<feBlend mode="normal" in="SourceGraphic" in2="effect1_dropShadow_132_10904" result="shape"/>
</filter>
<filter id="filter1_dd_132_10904" x="0" y="0" width="204" height="148" filterUnits="userSpaceOnUse" color-interpolation-filters="sRGB">
<feFlood flood-opacity="0" result="BackgroundImageFix"/>
<feColorMatrix in="SourceAlpha" type="matrix" values="0 0 0 0 0 0 0 0 0 0 0 0 0 0 0 0 0 0 127 0" result="hardAlpha"/>
<feMorphology radius="2" operator="erode" in="SourceAlpha" result="effect1_dropShadow_132_10904"/>
<feOffset dy="4"/>
<feGaussianBlur stdDeviation="3"/>
<feComposite in2="hardAlpha" operator="out"/>
<feColorMatrix type="matrix" values="0 0 0 0 0.0627451 0 0 0 0 0.0941176 0 0 0 0 0.156863 0 0 0 0.03 0"/>
<feBlend mode="normal" in2="BackgroundImageFix" result="effect1_dropShadow_132_10904"/>
<feColorMatrix in="SourceAlpha" type="matrix" values="0 0 0 0 0 0 0 0 0 0 0 0 0 0 0 0 0 0 127 0" result="hardAlpha"/>
<feMorphology radius="4" operator="erode" in="SourceAlpha" result="effect2_dropShadow_132_10904"/>
<feOffset dy="12"/>
<feGaussianBlur stdDeviation="8"/>
<feComposite in2="hardAlpha" operator="out"/>
<feColorMatrix type="matrix" values="0 0 0 0 0.0627451 0 0 0 0 0.0941176 0 0 0 0 0.156863 0 0 0 0.08 0"/>
<feBlend mode="normal" in2="effect1_dropShadow_132_10904" result="effect2_dropShadow_132_10904"/>
<feBlend mode="normal" in="SourceGraphic" in2="effect2_dropShadow_132_10904" result="shape"/>
</filter>
</defs>
</svg>
