<svg width="133" height="50" viewBox="0 0 133 50" fill="none" xmlns="http://www.w3.org/2000/svg">
<g clip-path="url(#clip0_129_1476)">
<path d="M22.59 34.6L19.97 27.45H9.22L6.6 34.6H1.78L12.69 6.94H16.53L27.4 34.61H22.59V34.6ZM9.78 24.54H19.31L14.62 10.93L9.78 24.54Z" fill="white"/>
<path d="M76.06 18.41H56.62V23.13H76.06V18.41Z" fill="white"/>
<path d="M76.06 29.88H56.62V34.6H76.06V29.88Z" fill="white"/>
<path d="M76.06 6.94H56.62V11.66H76.06V6.94Z" fill="white"/>
<path d="M92.81 34.6C90.9 34.6 89.14 34.21 87.58 33.44C86 32.66 84.63 31.62 83.49 30.33C82.36 29.04 81.47 27.55 80.86 25.89C80.25 24.23 79.94 22.51 79.94 20.77C79.94 19.03 80.27 17.2 80.92 15.54C81.57 13.88 82.49 12.39 83.65 11.12C84.81 9.85 86.2 8.82 87.78 8.07C89.35 7.32 91.09 6.94 92.94 6.94C94.79 6.94 96.6 7.34 98.17 8.14C99.75 8.94 101.12 10.01 102.24 11.3C103.36 12.6 104.24 14.1 104.86 15.77C105.47 17.43 105.78 19.14 105.78 20.85C105.78 22.66 105.45 24.42 104.8 26.06C104.15 27.71 103.24 29.18 102.09 30.45C100.94 31.71 99.56 32.73 97.99 33.48C96.42 34.23 94.68 34.61 92.83 34.61M92.85 10.84C91.5 10.84 90.28 11.14 89.25 11.72C88.23 12.3 87.35 13.06 86.63 14C85.92 14.93 85.38 16 85.02 17.18C84.66 18.35 84.48 19.56 84.48 20.77C84.48 21.98 84.67 23.28 85.04 24.46C85.41 25.65 85.96 26.72 86.67 27.64C87.39 28.57 88.28 29.32 89.31 29.88C90.36 30.45 91.56 30.73 92.89 30.73C94.22 30.73 95.46 30.43 96.49 29.85C97.51 29.27 98.39 28.5 99.09 27.54C99.78 26.6 100.32 25.52 100.68 24.35C101.04 23.18 101.22 21.97 101.22 20.76C101.22 19.55 101.02 18.25 100.64 17.06C100.25 15.87 99.7 14.8 98.99 13.89C98.27 12.96 97.39 12.22 96.37 11.67C95.33 11.12 94.15 10.84 92.85 10.84Z" fill="white"/>
<path d="M125.63 34.6L119.61 24.99H113.34V34.6H108.77V6.94H120.95C122.18 6.94 123.34 7.2 124.38 7.72C125.43 8.24 126.35 8.94 127.12 9.79C127.88 10.64 128.49 11.63 128.93 12.71C129.36 13.79 129.58 14.89 129.58 15.98C129.58 17.73 129.14 19.35 128.26 20.79C127.39 22.21 126.2 23.25 124.72 23.88L124.18 24.11L130.75 34.62H125.63V34.6ZM113.34 21.11H120.83C121.42 21.11 121.99 20.97 122.5 20.69C123 20.41 123.44 20.04 123.81 19.57C124.17 19.11 124.45 18.57 124.66 17.95C124.87 17.33 124.97 16.67 124.97 15.97C124.97 15.24 124.85 14.55 124.61 13.93C124.38 13.31 124.05 12.77 123.65 12.31C123.24 11.84 122.77 11.48 122.24 11.22C121.7 10.96 121.14 10.83 120.59 10.83H113.35V21.12L113.34 21.11Z" fill="white"/>
<path opacity="0.2" d="M43.6 21.62L49.74 13.32H44.78L41.22 18.48L35.88 10.51C35.93 10.45 35.99 10.39 36.07 10.33C38.1 9.05 39.96 7.97 41.77 7.03L41.85 6.99C41.93 6.94 42.02 6.9 42.1 6.86L42.21 6.8C44.92 5.42 47.38 4.39 49.71 3.66C49.91 3.6 49.97 3.55 49.97 3.55C49.97 3.55 49.97 3.53 49.97 3.5C49.97 3.5 49.92 3.47 49.75 3.47C49.72 3.47 49.69 3.47 49.65 3.47C46.54 3.65 43.3 4.37 39.77 5.67C37.6 6.47 35.89 7.22 34.38 8.04C34.29 8.09 34.17 8.15 34.02 8.15C33.71 8.15 33.54 7.9 33.48 7.82C33.11 7.24 32.71 6.68 32.4 6.26C32.33 6.16 32.16 6.09 31.99 6.09C31.91 6.09 31.83 6.11 31.79 6.14C31.49 6.39 31.18 6.59 30.87 6.79C30.64 6.94 30.41 7.09 30.2 7.25C29.86 7.5 29.83 7.72 30.07 8.06L30.24 8.3C30.43 8.57 30.61 8.83 30.81 9.09C30.88 9.19 31.01 9.36 30.97 9.6C30.92 9.84 30.71 9.96 30.63 10.01C28.77 11.09 27.18 12.11 25.78 13.12C25.65 13.22 25.59 13.27 25.56 13.3C25.58 13.34 25.62 13.41 25.71 13.55C26.08 14.08 26.45 14.6 26.82 15.13L27.52 16.13C27.59 16.22 27.63 16.26 27.65 16.28C27.67 16.28 27.72 16.25 27.82 16.17C28.4 15.71 29.01 15.23 29.64 14.76L29.69 14.72C30.46 14.14 31.31 13.52 32.35 12.78C32.38 12.75 32.42 12.73 32.45 12.71L32.48 12.69L38.71 21.61L29.2 35.2H34.22L41.15 24.78L46.11 32.25H51.04L43.56 21.62H43.6Z" fill="white" fill-opacity="0.5"/>
<path d="M45.64 20.01L52.18 11.17H46.9L43.11 16.66L37.42 8.17C37.47 8.1 37.54 8.04 37.63 7.98C39.79 6.61 41.77 5.47 43.71 4.46L43.79 4.41C43.88 4.36 43.97 4.32 44.06 4.27L44.18 4.21C47.07 2.74 49.68 1.64 52.17 0.87C52.39 0.8 52.45 0.75 52.45 0.75C52.45 0.75 52.45 0.73 52.45 0.69C52.45 0.69 52.4 0.66 52.22 0.66C52.19 0.66 52.15 0.66 52.12 0.66C48.8 0.85 45.36 1.61 41.6 3C39.29 3.85 37.47 4.66 35.86 5.52C35.76 5.57 35.63 5.63 35.48 5.63C35.15 5.63 34.97 5.37 34.91 5.27C34.51 4.65 34.08 4.06 33.76 3.61C33.68 3.51 33.5 3.43 33.33 3.43C33.24 3.43 33.16 3.45 33.12 3.49C32.8 3.75 32.47 3.97 32.14 4.19C31.89 4.35 31.66 4.51 31.43 4.68C31.07 4.95 31.03 5.18 31.29 5.55L31.47 5.81C31.67 6.09 31.87 6.38 32.07 6.65C32.15 6.75 32.29 6.94 32.24 7.19C32.19 7.45 31.97 7.58 31.88 7.63C29.9 8.78 28.21 9.86 26.71 10.94C26.57 11.04 26.51 11.1 26.48 11.13C26.5 11.17 26.54 11.25 26.64 11.4C27.04 11.96 27.43 12.52 27.83 13.08L28.58 14.14C28.65 14.24 28.69 14.28 28.71 14.29C28.73 14.29 28.79 14.25 28.89 14.17C29.51 13.68 30.16 13.17 30.83 12.67L30.88 12.63C31.7 12.01 32.6 11.36 33.72 10.57C33.76 10.54 33.79 10.52 33.83 10.49L33.87 10.46L40.51 19.96L30.32 34.57H35.67L43.11 23.34L48.39 31.3H53.64L45.67 19.98L45.64 20.01Z" fill="#A20E20"/>
<path d="M6.15 45.5L3.58 39.39L2.09 47.07H2.94L3.87 42.05L6.15 47.36L8.43 42.05L9.37 47.07H10.22L8.73 39.39L6.15 45.5Z" fill="white"/>
<path d="M11.13 40.22C11.13 40.06 11.19 39.93 11.3 39.81C11.41 39.7 11.55 39.64 11.71 39.64C11.87 39.64 12 39.7 12.11 39.81C12.22 39.92 12.28 40.06 12.28 40.22C12.28 40.38 12.22 40.51 12.11 40.62C12 40.73 11.86 40.79 11.7 40.79C11.54 40.79 11.4 40.73 11.29 40.62C11.18 40.51 11.12 40.37 11.12 40.21M11.31 42.45H12.1V47.07H11.31V42.45Z" fill="white"/>
<path d="M13.76 47.07V42.45H14.53V43.16C14.73 42.87 14.97 42.64 15.24 42.5C15.52 42.35 15.84 42.28 16.21 42.28C16.75 42.28 17.18 42.42 17.48 42.71C17.78 43 17.94 43.4 17.94 43.92V47.06H17.14V44.34C17.14 43.87 17.04 43.52 16.85 43.3C16.65 43.07 16.35 42.96 15.94 42.96C15.71 42.96 15.49 43 15.3 43.09C15.11 43.18 14.95 43.3 14.82 43.46C14.72 43.58 14.65 43.72 14.61 43.87C14.57 44.02 14.55 44.29 14.55 44.68V47.07H13.77H13.76Z" fill="white"/>
<path d="M19.35 40.22C19.35 40.06 19.41 39.93 19.52 39.81C19.63 39.7 19.77 39.64 19.93 39.64C20.09 39.64 20.22 39.7 20.33 39.81C20.44 39.92 20.5 40.06 20.5 40.22C20.5 40.38 20.44 40.51 20.33 40.62C20.22 40.73 20.08 40.79 19.92 40.79C19.76 40.79 19.62 40.73 19.51 40.62C19.4 40.51 19.34 40.37 19.34 40.21M19.54 42.45H20.33V47.07H19.54V42.45Z" fill="white"/>
<path d="M21.99 47.07V42.45H22.76V43.16C22.96 42.87 23.2 42.64 23.47 42.5C23.75 42.35 24.07 42.28 24.44 42.28C24.98 42.28 25.41 42.42 25.71 42.71C26.01 43 26.17 43.4 26.17 43.92V47.06H25.37V44.34C25.37 43.87 25.27 43.52 25.08 43.3C24.88 43.07 24.58 42.96 24.17 42.96C23.94 42.96 23.72 43 23.53 43.09C23.34 43.18 23.18 43.3 23.05 43.46C22.95 43.58 22.88 43.72 22.84 43.87C22.8 44.02 22.78 44.29 22.78 44.68V47.07H22H21.99Z" fill="white"/>
<path d="M32.01 42.45V46.99C32.01 47.49 31.98 47.85 31.91 48.06C31.84 48.27 31.73 48.46 31.58 48.63C31.37 48.86 31.1 49.03 30.79 49.15C30.48 49.26 30.12 49.32 29.72 49.32C29.02 49.32 28.48 49.16 28.09 48.84C27.7 48.52 27.5 48.07 27.48 47.48H28.36V47.54C28.36 47.89 28.48 48.15 28.72 48.34C28.96 48.53 29.3 48.62 29.73 48.62C30.05 48.62 30.31 48.57 30.54 48.47C30.76 48.37 30.93 48.22 31.05 48.01C31.12 47.9 31.17 47.76 31.2 47.61C31.23 47.46 31.24 47.24 31.24 46.96V46.18C31.06 46.51 30.83 46.76 30.54 46.94C30.25 47.12 29.93 47.21 29.57 47.21C28.91 47.21 28.38 46.98 27.97 46.53C27.57 46.08 27.36 45.48 27.36 44.73C27.36 43.98 27.56 43.38 27.95 42.94C28.34 42.5 28.87 42.28 29.52 42.28C29.9 42.28 30.24 42.37 30.53 42.54C30.82 42.71 31.05 42.97 31.21 43.3V42.44H31.99L32.01 42.45ZM31.25 44.77C31.25 44.25 31.11 43.83 30.83 43.52C30.55 43.2 30.18 43.05 29.72 43.05C29.26 43.05 28.88 43.2 28.61 43.49C28.35 43.78 28.21 44.19 28.21 44.72C28.21 45.28 28.34 45.71 28.61 46.01C28.88 46.31 29.25 46.46 29.74 46.46C30.23 46.46 30.58 46.31 30.84 46.01C31.11 45.71 31.24 45.3 31.24 44.77" fill="white"/>
<path d="M36.72 47.07V39.68H38.45C38.94 39.68 39.3 39.71 39.53 39.76C39.76 39.82 39.96 39.91 40.14 40.05C40.36 40.22 40.53 40.45 40.65 40.74C40.77 41.03 40.83 41.35 40.83 41.7C40.83 42.31 40.66 42.76 40.32 43.08C39.98 43.39 39.49 43.55 38.84 43.55H38.68L41.49 47.07H40.38L37.7 43.55H37.57V47.07H36.72ZM37.58 40.42V42.89H38.25C38.93 42.89 39.39 42.8 39.62 42.63C39.85 42.45 39.97 42.14 39.97 41.7C39.97 41.23 39.85 40.89 39.61 40.7C39.37 40.51 38.92 40.41 38.25 40.41H37.58V40.42Z" fill="white"/>
<path d="M46.26 44.88H42.62V44.95C42.62 45.44 42.76 45.84 43.04 46.15C43.32 46.45 43.69 46.61 44.14 46.61C44.45 46.61 44.73 46.53 44.98 46.36C45.23 46.19 45.45 45.94 45.64 45.6L46.24 46C46.01 46.42 45.71 46.73 45.36 46.94C45 47.15 44.59 47.26 44.11 47.26C43.41 47.26 42.84 47.03 42.41 46.56C41.98 46.1 41.76 45.49 41.76 44.73C41.76 43.97 41.98 43.41 42.4 42.95C42.83 42.49 43.38 42.26 44.05 42.26C44.72 42.26 45.27 42.48 45.67 42.92C46.07 43.36 46.27 43.95 46.27 44.71V44.87L46.26 44.88ZM45.42 44.24C45.39 43.83 45.26 43.52 45.02 43.3C44.78 43.08 44.44 42.97 44.02 42.97C43.64 42.97 43.32 43.09 43.07 43.32C42.82 43.55 42.67 43.86 42.63 44.25H45.43L45.42 44.24Z" fill="white"/>
<path d="M46.96 46.29L47.63 45.84C47.76 46.09 47.92 46.27 48.11 46.39C48.3 46.51 48.53 46.57 48.8 46.57C49.07 46.57 49.27 46.51 49.43 46.38C49.59 46.25 49.67 46.08 49.67 45.87C49.67 45.71 49.62 45.57 49.51 45.47C49.4 45.36 49.21 45.26 48.95 45.17C48.92 45.17 48.88 45.14 48.82 45.13C47.7 44.74 47.14 44.26 47.14 43.68C47.14 43.27 47.29 42.94 47.59 42.68C47.89 42.42 48.28 42.29 48.77 42.29C49.17 42.29 49.51 42.37 49.8 42.53C50.09 42.69 50.29 42.92 50.41 43.21L49.77 43.6C49.68 43.39 49.54 43.23 49.36 43.11C49.18 42.99 48.96 42.94 48.72 42.94C48.48 42.94 48.3 43 48.15 43.13C48 43.26 47.93 43.42 47.93 43.63C47.93 43.91 48.24 44.15 48.84 44.34C48.95 44.38 49.04 44.41 49.11 44.43C49.61 44.59 49.96 44.78 50.15 44.98C50.35 45.19 50.44 45.46 50.44 45.8C50.44 46.24 50.28 46.59 49.97 46.86C49.66 47.13 49.26 47.27 48.76 47.27C48.33 47.27 47.97 47.19 47.67 47.03C47.37 46.87 47.13 46.63 46.95 46.3" fill="white"/>
<path d="M51.27 44.77C51.27 44.43 51.33 44.11 51.46 43.81C51.58 43.51 51.76 43.24 52 43.01C52.24 42.77 52.51 42.6 52.81 42.47C53.11 42.35 53.43 42.29 53.77 42.29C54.11 42.29 54.42 42.35 54.72 42.48C55.02 42.6 55.29 42.79 55.54 43.02C55.78 43.25 55.96 43.52 56.08 43.82C56.2 44.12 56.26 44.44 56.26 44.78C56.26 45.12 56.2 45.43 56.08 45.73C55.96 46.03 55.77 46.29 55.54 46.52C55.3 46.76 55.02 46.95 54.72 47.07C54.42 47.2 54.1 47.26 53.77 47.26C53.44 47.26 53.11 47.2 52.81 47.07C52.51 46.94 52.24 46.76 52 46.53C51.76 46.29 51.58 46.02 51.46 45.72C51.34 45.42 51.27 45.11 51.27 44.77ZM52.1 44.77C52.1 45.26 52.26 45.67 52.59 46.01C52.92 46.35 53.31 46.52 53.77 46.52C54.23 46.52 54.62 46.35 54.94 46.01C55.26 45.67 55.42 45.26 55.42 44.77C55.42 44.28 55.26 43.87 54.94 43.53C54.62 43.19 54.23 43.02 53.77 43.02C53.31 43.02 52.91 43.19 52.59 43.53C52.27 43.87 52.11 44.28 52.11 44.77" fill="white"/>
<path d="M58.24 42.45V44.72C58.24 45.38 58.34 45.85 58.53 46.11C58.73 46.37 59.06 46.51 59.52 46.51C59.98 46.51 60.32 46.38 60.51 46.12C60.7 45.86 60.8 45.39 60.8 44.72V42.45H61.6V45.15C61.6 45.85 61.42 46.37 61.07 46.73C60.72 47.09 60.19 47.27 59.5 47.27C58.81 47.27 58.3 47.09 57.94 46.73C57.58 46.37 57.41 45.84 57.41 45.15V42.45H58.24Z" fill="white"/>
<path d="M63.14 47.07V42.45H63.84V43.41C64.05 43.01 64.28 42.72 64.51 42.55C64.75 42.38 65.04 42.29 65.38 42.29C65.47 42.29 65.56 42.29 65.65 42.31C65.74 42.33 65.82 42.35 65.91 42.38L65.65 43.09C65.56 43.06 65.47 43.04 65.39 43.02C65.31 43 65.23 43 65.16 43C64.74 43 64.43 43.15 64.22 43.45C64.01 43.75 63.91 44.2 63.91 44.81V47.06H63.13L63.14 47.07Z" fill="white"/>
<path d="M70.27 45.97V46.89C70.06 47.01 69.83 47.11 69.57 47.17C69.31 47.23 69.03 47.26 68.73 47.26C68.02 47.26 67.45 47.03 67.01 46.58C66.58 46.13 66.36 45.53 66.36 44.8C66.36 44.07 66.59 43.46 67.03 42.99C67.48 42.52 68.05 42.29 68.75 42.29C69 42.29 69.25 42.32 69.5 42.37C69.74 42.42 69.97 42.5 70.19 42.61V43.46C69.99 43.33 69.78 43.23 69.57 43.16C69.36 43.09 69.14 43.06 68.92 43.06C68.4 43.06 67.99 43.22 67.68 43.55C67.37 43.88 67.21 44.31 67.21 44.84C67.21 45.31 67.37 45.71 67.68 46.03C67.99 46.35 68.39 46.51 68.86 46.51C69.1 46.51 69.33 46.47 69.56 46.38C69.79 46.3 70.03 46.16 70.28 45.98" fill="white"/>
<path d="M75.48 44.88H71.84V44.95C71.84 45.44 71.98 45.84 72.26 46.15C72.54 46.45 72.91 46.61 73.36 46.61C73.67 46.61 73.95 46.53 74.2 46.36C74.45 46.19 74.67 45.94 74.86 45.6L75.46 46C75.23 46.42 74.93 46.73 74.58 46.94C74.22 47.15 73.81 47.26 73.33 47.26C72.63 47.26 72.06 47.03 71.63 46.56C71.2 46.1 70.98 45.49 70.98 44.73C70.98 43.97 71.2 43.41 71.62 42.95C72.05 42.49 72.6 42.26 73.27 42.26C73.94 42.26 74.49 42.48 74.89 42.92C75.29 43.36 75.49 43.95 75.49 44.71V44.87L75.48 44.88ZM74.63 44.24C74.6 43.83 74.47 43.52 74.23 43.3C73.99 43.08 73.65 42.97 73.23 42.97C72.85 42.97 72.53 43.09 72.27 43.32C72.01 43.55 71.87 43.86 71.83 44.25H74.63V44.24Z" fill="white"/>
<path d="M76.17 46.29L76.84 45.84C76.97 46.09 77.13 46.27 77.32 46.39C77.51 46.51 77.74 46.57 78.01 46.57C78.28 46.57 78.48 46.51 78.64 46.38C78.8 46.25 78.88 46.08 78.88 45.87C78.88 45.71 78.83 45.57 78.72 45.47C78.61 45.36 78.42 45.26 78.16 45.17C78.13 45.17 78.09 45.14 78.03 45.13C76.91 44.74 76.35 44.26 76.35 43.68C76.35 43.27 76.5 42.94 76.8 42.68C77.1 42.42 77.49 42.29 77.98 42.29C78.38 42.29 78.72 42.37 79.01 42.53C79.3 42.69 79.5 42.92 79.62 43.21L78.98 43.6C78.89 43.39 78.75 43.23 78.57 43.11C78.39 42.99 78.17 42.94 77.93 42.94C77.69 42.94 77.51 43 77.36 43.13C77.21 43.26 77.14 43.42 77.14 43.63C77.14 43.91 77.45 44.15 78.05 44.34C78.16 44.38 78.25 44.41 78.32 44.43C78.82 44.59 79.17 44.78 79.36 44.98C79.56 45.19 79.65 45.46 79.65 45.8C79.65 46.24 79.49 46.59 79.18 46.86C78.87 47.13 78.47 47.27 77.97 47.27C77.54 47.27 77.18 47.19 76.88 47.03C76.58 46.87 76.34 46.63 76.16 46.3" fill="white"/>
<path d="M84.85 39.68H83.98V47.07H84.85V39.68Z" fill="white"/>
<path d="M86.55 47.07V42.45H87.32V43.16C87.52 42.87 87.76 42.64 88.03 42.5C88.31 42.35 88.63 42.28 89 42.28C89.54 42.28 89.97 42.42 90.27 42.71C90.58 43 90.73 43.4 90.73 43.92V47.06H89.93V44.34C89.93 43.87 89.83 43.52 89.64 43.3C89.44 43.07 89.14 42.96 88.73 42.96C88.5 42.96 88.28 43 88.09 43.09C87.9 43.18 87.74 43.3 87.61 43.46C87.51 43.58 87.44 43.72 87.4 43.87C87.36 44.02 87.34 44.29 87.34 44.68V47.07H86.56H86.55Z" fill="white"/>
<path d="M93.81 47.36L91.53 42.45H92.41L93.79 45.67L95.18 42.45H96.07L93.81 47.36Z" fill="white"/>
<path d="M101.02 44.88H97.38V44.95C97.38 45.44 97.52 45.84 97.8 46.15C98.08 46.45 98.45 46.61 98.9 46.61C99.21 46.61 99.49 46.53 99.74 46.36C99.99 46.19 100.21 45.94 100.4 45.6L101 46C100.77 46.42 100.47 46.73 100.12 46.94C99.76 47.15 99.35 47.26 98.87 47.26C98.17 47.26 97.6 47.03 97.17 46.56C96.74 46.1 96.52 45.49 96.52 44.73C96.52 43.97 96.74 43.41 97.16 42.95C97.59 42.49 98.14 42.26 98.81 42.26C99.48 42.26 100.03 42.48 100.43 42.92C100.83 43.36 101.03 43.95 101.03 44.71V44.87L101.02 44.88ZM100.18 44.24C100.15 43.83 100.02 43.52 99.78 43.3C99.54 43.08 99.2 42.97 98.78 42.97C98.4 42.97 98.08 43.09 97.82 43.32C97.56 43.55 97.42 43.86 97.38 44.25H100.18V44.24Z" fill="white"/>
<path d="M101.72 46.29L102.39 45.84C102.52 46.09 102.68 46.27 102.87 46.39C103.06 46.51 103.29 46.57 103.56 46.57C103.83 46.57 104.03 46.51 104.19 46.38C104.35 46.25 104.43 46.08 104.43 45.87C104.43 45.71 104.38 45.57 104.27 45.47C104.16 45.36 103.97 45.26 103.71 45.17C103.68 45.17 103.64 45.14 103.58 45.13C102.46 44.74 101.9 44.26 101.9 43.68C101.9 43.27 102.05 42.94 102.35 42.68C102.65 42.42 103.04 42.29 103.53 42.29C103.93 42.29 104.27 42.37 104.56 42.53C104.85 42.69 105.05 42.92 105.17 43.21L104.53 43.6C104.44 43.39 104.3 43.23 104.12 43.11C103.94 42.99 103.72 42.94 103.48 42.94C103.24 42.94 103.06 43 102.91 43.13C102.76 43.26 102.69 43.42 102.69 43.63C102.69 43.91 103 44.15 103.6 44.34C103.71 44.38 103.8 44.41 103.87 44.43C104.37 44.59 104.72 44.78 104.91 44.98C105.11 45.19 105.2 45.46 105.2 45.8C105.2 46.24 105.04 46.59 104.73 46.86C104.42 47.13 104.02 47.27 103.52 47.27C103.09 47.27 102.73 47.19 102.43 47.03C102.13 46.87 101.89 46.63 101.71 46.3" fill="white"/>
<path d="M106.52 43.1H105.68V42.45H106.52V40.59H107.33V42.45H108.17V43.1H107.33V47.07H106.52V43.1Z" fill="white"/>
<path d="M115.47 47.07V44.35C115.47 43.88 115.38 43.53 115.19 43.31C115 43.08 114.72 42.97 114.32 42.97C114.11 42.97 113.91 43.01 113.74 43.1C113.56 43.19 113.41 43.31 113.28 43.47C113.19 43.59 113.12 43.73 113.08 43.89C113.04 44.05 113.02 44.32 113.02 44.69V47.08H112.26V44.36C112.26 43.89 112.17 43.54 111.98 43.32C111.79 43.09 111.5 42.98 111.11 42.98C110.9 42.98 110.7 43.02 110.52 43.11C110.34 43.2 110.18 43.32 110.06 43.48C109.97 43.6 109.91 43.73 109.87 43.89C109.83 44.04 109.81 44.32 109.81 44.7V47.09H109.05V42.47H109.82V43.18C110.01 42.89 110.24 42.66 110.5 42.52C110.77 42.37 111.07 42.3 111.42 42.3C111.79 42.3 112.11 42.38 112.37 42.54C112.63 42.7 112.83 42.93 112.96 43.24C113.16 42.92 113.39 42.69 113.66 42.53C113.93 42.38 114.24 42.3 114.6 42.3C115.11 42.3 115.51 42.44 115.8 42.73C116.09 43.02 116.23 43.42 116.23 43.94V47.08H115.45L115.47 47.07Z" fill="white"/>
<path d="M121.91 44.88H118.27V44.95C118.27 45.44 118.41 45.84 118.69 46.15C118.97 46.45 119.34 46.61 119.79 46.61C120.1 46.61 120.38 46.53 120.63 46.36C120.88 46.19 121.1 45.94 121.29 45.6L121.89 46C121.66 46.42 121.36 46.73 121.01 46.94C120.65 47.15 120.24 47.26 119.76 47.26C119.06 47.26 118.49 47.03 118.06 46.56C117.63 46.1 117.41 45.49 117.41 44.73C117.41 43.97 117.63 43.41 118.05 42.95C118.48 42.49 119.03 42.26 119.7 42.26C120.37 42.26 120.92 42.48 121.32 42.92C121.72 43.36 121.92 43.95 121.92 44.71V44.87L121.91 44.88ZM121.06 44.24C121.03 43.83 120.9 43.52 120.66 43.3C120.42 43.08 120.08 42.97 119.66 42.97C119.28 42.97 118.96 43.09 118.7 43.32C118.44 43.55 118.3 43.86 118.26 44.25H121.06V44.24Z" fill="white"/>
<path d="M123.09 47.07V42.45H123.86V43.16C124.06 42.87 124.3 42.64 124.57 42.5C124.85 42.35 125.17 42.28 125.54 42.28C126.08 42.28 126.51 42.42 126.81 42.71C127.12 43 127.27 43.4 127.27 43.92V47.06H126.47V44.34C126.47 43.87 126.37 43.52 126.18 43.3C125.98 43.07 125.68 42.96 125.27 42.96C125.04 42.96 124.82 43 124.63 43.09C124.44 43.18 124.28 43.3 124.15 43.46C124.05 43.58 123.98 43.72 123.94 43.87C123.9 44.02 123.88 44.29 123.88 44.68V47.07H123.1H123.09Z" fill="white"/>
<path d="M128.95 43.1H128.11V42.45H128.95V40.59H129.76V42.45H130.6V43.1H129.76V47.07H128.95V43.1Z" fill="white"/>
</g>
<defs>
<clipPath id="clip0_129_1476">
<rect width="132.52" height="49.99" fill="white"/>
</clipPath>
</defs>
</svg>
