<svg width="229" height="41" viewBox="0 0 229 41" fill="none" xmlns="http://www.w3.org/2000/svg">
<path d="M17.3537 23.1987L9.01035 36.7809H12.9274L19.3789 26.3639L17.3537 23.1987Z" fill="#A20E20"/>
<path d="M2.87409 3.33496V36.7812H3.44406L17.1718 14.3341L21.9862 21.6346L26.6066 14.3341L31.9788 22.8351L29.3109 27.2251L26.6066 23.199L18.2511 36.7812H21.9377L26.5945 29.2261L29.3109 33.5554L34.0162 25.879L40.6011 36.7812H41.0862V3.33496H2.87409Z" fill="#A20E20"/>
<path d="M67.996 36.7808L67.9717 25.5998L62.4903 34.8163H60.55L55.0929 25.8423V36.793H51.0425V18.1538H54.6078L61.5808 29.7351L68.4568 18.1538H71.9979L72.0464 36.793H67.996V36.7808Z" fill="white"/>
<path d="M92.5046 33.3247V36.793H78.0735V18.1538H92.1651V21.6221H82.3665V25.6725H91.0251V29.0317H82.3665V33.3489H92.5167L92.5046 33.3247Z" fill="white"/>
<path d="M101.394 21.6589H95.4272V18.1421H111.677V21.6589H105.711V36.7813H101.394V21.6589Z" fill="white"/>
<path d="M126.933 32.7915H118.274L116.625 36.7813H112.199L120.506 18.1421H124.762L133.094 36.7813H128.57L126.921 32.7915H126.933ZM125.575 29.5172L122.616 22.3744L119.657 29.5172H125.575Z" fill="white"/>
<path d="M136.659 18.1421H140.976V33.2644H150.326V36.7813H136.659V18.1421Z" fill="white"/>
<path d="M154.34 18.1421H158.657V33.2644H168.007V36.7813H154.34V18.1421Z" fill="white"/>
<path d="M197.021 18.1421H201.338V36.7813H197.021V18.1421Z" fill="white"/>
<path d="M172.189 27.4554C172.189 21.9134 176.506 17.8145 182.388 17.8145C188.27 17.8145 192.587 21.8891 192.587 27.4554C192.587 33.0217 188.245 37.0964 182.388 37.0964C176.531 37.0964 172.189 32.9974 172.189 27.4554ZM188.221 27.4554C188.221 23.9143 185.723 21.4889 182.388 21.4889C179.053 21.4889 176.555 23.9143 176.555 27.4554C176.555 30.9965 179.053 33.4219 182.388 33.4219C185.723 33.4219 188.221 30.9965 188.221 27.4554Z" fill="white"/>
<path d="M206.438 18.1421H214.902C221.002 18.1421 225.186 21.8166 225.186 27.4677C225.186 33.1189 221.002 36.7934 214.902 36.7934H206.438V18.1542V18.1421ZM214.684 33.2402C218.383 33.2402 220.808 31.0331 220.808 27.4556C220.808 23.8782 218.383 21.671 214.684 21.671H210.743V33.2281H214.684V33.2402Z" fill="white"/>
</svg>
